<?xml version="1.0" encoding="UTF-8" standalone="no"?>
<svg
   xmlns:dc="http://purl.org/dc/elements/1.1/"
   xmlns:cc="http://creativecommons.org/ns#"
   xmlns:rdf="http://www.w3.org/1999/02/22-rdf-syntax-ns#"
   xmlns:svg="http://www.w3.org/2000/svg"
   xmlns="http://www.w3.org/2000/svg"
   xmlns:sodipodi="http://sodipodi.sourceforge.net/DTD/sodipodi-0.dtd"
   xmlns:inkscape="http://www.inkscape.org/namespaces/inkscape"
   version="1.1"
   id="svg2"
   xml:space="preserve"
   width="2666.6667"
   height="2666.6667"
   viewBox="0 0 2666.6667 2666.6667"
   sodipodi:docname="silhouette-1975689.ai"><metadata
     id="metadata8"><rdf:RDF><cc:Work
         rdf:about=""><dc:format>image/svg+xml</dc:format><dc:type
           rdf:resource="http://purl.org/dc/dcmitype/StillImage" /></cc:Work></rdf:RDF></metadata><defs
     id="defs6"><clipPath
       clipPathUnits="userSpaceOnUse"
       id="clipPath18"><path
         d="M 0,2000 H 2000 V 0 H 0 Z"
         id="path16" /></clipPath></defs><sodipodi:namedview
     pagecolor="#ffffff"
     bordercolor="#666666"
     borderopacity="1"
     objecttolerance="10"
     gridtolerance="10"
     guidetolerance="10"
     inkscape:pageopacity="0"
     inkscape:pageshadow="2"
     inkscape:window-width="640"
     inkscape:window-height="480"
     id="namedview4" /><g
     id="g10"
     inkscape:groupmode="layer"
     inkscape:label="silhouette-1975689"
     transform="matrix(1.3333333,0,0,-1.3333333,0,2666.6667)"><g
       id="g12"><g
         id="g14"
         clip-path="url(#clipPath18)"><g
           id="g20"
           transform="translate(1574.9465,989.8405)"><path
             d="m 0,0 c -9.052,0 -21.121,-3.688 -24.139,-14.081 -3.017,-10.393 6.944,-17.434 6.944,-17.434 0,0 -12.308,-7.71 -20.019,-8.381 -7.017,-0.61 -22.349,-1.778 -34.149,-3.751 -5.145,16.628 -15.595,50.352 -24.857,63.427 -11.398,16.092 -18.104,27.827 -19.109,29.503 -1.006,1.676 -3.018,14.416 -5.7,18.774 0,0 -0.813,12.612 -3.552,26.046 22.484,-5.505 54.352,-6.53 61.552,-5.93 8.046,0.671 34.532,3.017 45.834,-0.335 C -5.893,84.485 40.566,77.445 40.566,77.445 40.231,71.075 44.589,48.612 53.977,46.936 63.364,45.26 72.751,35.202 78.786,26.82 84.821,18.439 91.526,-3.017 91.526,-3.017 77.78,-0.336 9.052,0 0,0 m 37.799,-127.279 -60.084,-0.69 c -5.19,5.035 -12.978,13.034 -16.605,19.009 0,0 1.676,10.729 0,14.417 -1.436,3.159 -6.068,3.389 -10.318,6.755 7.08,1.285 12.411,2.53 14.341,3.303 6.705,2.681 26.821,8.716 37.214,6.704 10.393,-2.011 44.59,-9.052 44.59,-9.052 l 28.832,-20.45 C 49,-108 40.495,-120.274 37.799,-127.279 m -138.837,-1.594 -240.081,-2.756 c -1.249,4.707 -3.574,13.326 -4.534,15.964 -1.341,3.688 -1.676,15.757 1.341,20.451 3.018,4.694 21.457,36.879 26.486,43.249 5.029,6.369 12.069,19.78 14.751,31.849 2.682,12.07 7.376,17.434 9.052,19.78 1.676,2.348 7.041,15.087 7.041,15.087 0,0 8.716,12.405 10.393,16.428 0,0 10.728,19.78 15.086,33.526 4.359,13.746 13.076,30.844 17.099,38.555 4.023,7.711 17.433,33.191 22.127,48.613 0,0 9.052,3.017 13.746,-19.781 4.693,-22.798 21.791,-54.983 32.184,-71.745 10.393,-16.763 31.85,-33.862 31.85,-33.862 0,0 0.671,-29.502 10.058,-45.26 4.258,-7.148 13.758,-20.709 22.87,-33.397 -13.879,-2.824 -27.259,-5.132 -32.257,-4.487 -10.393,1.341 -19.781,6.705 -29.168,7.711 -9.387,1.006 -26.821,7.375 -30.509,8.046 -3.688,0.671 -16.428,-4.694 -20.786,-7.04 -4.358,-2.347 -5.699,-12.405 9.723,-19.445 15.422,-7.041 31.514,-23.469 38.89,-27.156 7.376,-3.688 28.162,-1.006 33.526,3.687 5.364,4.694 12.74,3.353 32.855,-0.67 4.348,-0.87 9.984,-1.157 16.21,-1.051 -2.51,-8.333 -6.663,-19.654 -12.522,-27.781 -1.903,-2.641 0.089,-5.541 4.569,-8.515 m -163.733,704.598 c 0,0 0,14.583 4.526,21.372 0,0 12.32,0 2.011,-24.39 0,0 -2.514,1.509 -6.537,3.018 m 111.893,-252.2 c 0,0 33.19,-30.173 38.219,-32.184 5.029,-2.012 12.07,-16.009 12.07,-16.009 -13.076,-9.471 -36.711,-48.194 -36.711,-48.194 -7.544,3.186 -27.659,10.896 -27.659,10.896 0,7.544 -8.549,34.7 -8.549,34.7 5.531,22.63 22.63,50.791 22.63,50.791 M -496.52,116 c 0,0 -4.693,7.04 -9.052,9.722 -4.358,2.682 -3.688,7.041 -3.688,7.041 0,0 16.093,9.387 17.769,23.803 1.676,14.416 4.359,32.185 -6.035,42.913 -10.393,10.729 -36.878,18.44 -54.982,10.058 -18.104,-8.381 -19.78,-7.375 -19.78,-7.375 0,0 -6.035,-14.081 -6.37,-17.434 -0.336,-3.353 2.887,-4.694 1.444,-6.705 -1.444,-2.012 -2.45,-2.347 -2.786,-4.694 -0.335,-2.347 0.336,-6.705 0,-10.058 -0.335,-3.352 -2.681,-15.421 -2.681,-15.421 0,0 -11.922,19.715 -22.52,32.673 6.423,11.346 10.459,24.587 11.372,38.84 l 153.446,8.278 c 0,-11.702 1.788,-22.875 5.008,-33.148 l -0.012,-0.006 c 0,0 -15.873,-19.146 -21.237,-26.522 -5.364,-7.376 -12.069,-9.723 -14.416,-14.751 -2.347,-5.029 -5.699,-10.058 -9.052,-16.428 -3.353,-6.37 -12.405,-17.098 -16.428,-20.786 m -45.27,-249.933 c -1.775,3.321 -4.973,8.297 -10.718,14.58 -10.728,11.735 -28.833,33.526 -28.833,33.526 0,0 35.203,-8.381 48.949,-8.716 0,0 6.705,-17.434 21.121,-23.804 7.389,-3.265 14.147,-9.605 18.994,-15.017 z m 256.149,707.898 -3.772,-1.258 c -5.28,11.567 -5.28,21.122 -5.28,21.122 10.278,-9.057 9.052,-19.864 9.052,-19.864 m 663.479,-697.341 -234.712,-2.694 c -1.636,6.958 -7.72,13.879 -13.045,19.457 -7.041,7.376 -16.763,17.099 7.04,9.052 23.804,-8.046 43.919,1.341 52.301,19.445 8.381,18.104 -0.671,42.578 -7.041,52.301 -6.37,9.723 -13.41,28.832 -16.092,41.237 -2.682,12.404 4.023,39.896 -11.734,77.78 -15.757,37.884 -43.249,58 -43.249,58 3.018,7.376 5.7,22.713 5.7,22.713 15.422,-15.171 37.549,-17.684 44.254,-2.262 6.705,15.422 -10.728,22.798 -10.728,22.798 7.375,-12.07 -4.023,-10.729 -10.394,-3.018 -6.369,7.711 -4.023,25.145 -14.08,32.185 -10.058,7.041 -16.763,1.341 -16.763,1.341 -11.399,0.336 -14.752,-8.381 -14.752,-8.381 -9.387,3.017 -13.075,10.058 -25.144,10.058 -23.804,-1.677 -33.862,-14.081 -33.862,-14.081 -11.733,-4.694 -20.115,-14.081 -20.785,-18.44 -0.671,-4.358 2.681,-9.052 5.364,-19.445 5.699,-23.133 15.421,-35.537 15.421,-35.537 -7.04,0.335 -34.531,-8.047 -44.589,-10.477 -10.058,-2.431 -20.116,-4.275 -27.827,-2.263 -7.71,2.011 -24.138,2.682 -29.502,2.011 -5.364,-0.67 -41.572,-1.006 -52.301,-2.682 -3.785,-0.591 -9.243,-1.391 -14.792,-2.179 -7.091,23.509 -17.188,64.54 -24.098,80.295 0,0 5.364,2.347 11.734,0 6.37,-2.347 13.075,2.682 15.757,4.693 2.682,2.012 45.596,43.584 58,59.006 4.694,5.364 6.035,13.075 6.37,17.099 0.335,4.023 -13.075,18.104 -16.092,21.791 -3.018,3.688 -25.48,33.526 -33.191,42.578 -7.711,9.052 -23.468,27.492 -37.884,26.821 -4.694,-0.67 -15.422,8.046 -17.434,9.723 -2.011,1.676 4.693,6.705 7.711,9.387 3.017,2.682 1.341,19.11 2.347,22.798 1.006,3.688 6.035,12.404 5.364,17.769 -0.671,5.364 -21.457,31.849 -41.908,38.554 -2.985,0.979 -6.421,0.086 -10.112,-2.154 0,0 -11.679,0.143 -17.714,-12.597 -6.035,-12.74 -13.075,-29.503 -12.405,-34.532 0.671,-5.029 7.376,-11.399 7.376,-17.098 0,-5.7 -2.682,-13.075 -3.688,-14.752 -1.006,-1.676 -6.034,-2.011 -6.034,-2.011 0,0 -5.7,12.74 -7.712,18.104 -2.011,5.364 -2.346,21.457 -2.681,26.821 -0.336,5.364 3.687,10.728 4.358,16.092 0.67,5.364 -11.734,62.023 -11.734,62.023 0,0 22.462,7.041 22.797,29.168 0.336,22.127 -14.08,26.15 -14.08,26.15 0,0 16.092,37.214 -8.717,39.561 l -4.359,5.699 c 0,0 -18.104,4.023 -28.497,-1.676 l -4.358,-5.029 c 0,0 -27.156,-0.335 -4.358,-39.561 0,0 -15.087,-9.052 -11.399,-29.167 3.687,-20.116 27.826,-28.833 27.826,-28.833 0,0 -7.04,-34.196 -6.705,-46.936 0.335,-12.74 6.705,-24.139 6.37,-30.844 -0.335,-6.705 -10.058,-34.196 -7.711,-55.988 2.347,-21.792 28.162,-85.827 28.162,-94.879 0,-9.052 -18.104,-55.318 -20.451,-59.341 -2.347,-4.023 9.387,-13.41 9.387,-13.41 0,0 -31.849,-59.341 -40.901,-92.867 -9.052,-33.526 -8.047,-62.694 -8.047,-62.694 0,0 -4.693,-6.034 -7.376,-18.774 0,0 -19.78,-18.775 -23.132,-41.237 -3.353,-22.463 -6.37,-44.59 -11.064,-58 -4.693,-13.411 -13.075,-33.861 -24.474,-44.59 -10.592,-9.969 -9.316,-13.867 -8.813,-22.976 l -37.274,-0.428 c -1.059,2.109 -2.343,4.916 -3.196,7.647 -1.676,5.364 -1.676,12.405 -5.029,21.457 0,0 18.439,5.029 21.457,25.144 3.017,20.116 -0.671,29.503 -5.029,35.202 -4.359,5.7 -23.133,25.145 -28.162,30.509 -5.029,5.364 -12.405,36.543 -20.116,48.277 0,0 6.37,20.787 6.706,36.208 0,0 19.072,22.463 27.304,51.295 4.987,17.465 15.913,30.096 23.769,37.369 12.895,-14.677 30.029,-23.623 48.834,-23.623 40.097,0 72.603,40.677 72.603,90.855 0,50.178 -32.506,90.856 -72.603,90.856 -34.735,0 -63.755,-30.533 -70.901,-71.316 l -154.878,-6.632 -1.183,-0.536 c -6.023,38.875 -35.669,68.426 -71.419,68.426 -40.097,0 -72.603,-37.142 -72.603,-82.958 0,-45.816 32.506,-82.958 72.603,-82.958 14.418,0 27.819,4.861 39.115,13.142 3.851,-7.605 8.082,-16.267 10.168,-21.561 4.358,-11.064 8.717,-30.174 12.74,-36.543 4.023,-6.371 20.786,-14.081 21.121,-15.758 0.336,-1.676 -9.052,-23.468 -6.035,-35.873 3.018,-12.404 40.232,-71.41 40.232,-71.41 0,0 -52.971,15.757 -111.642,0 -12.74,-4.358 -13.41,-13.075 -10.728,-19.445 2.682,-6.37 51.361,-59.006 60.547,-68.393 3.208,-3.341 -10.342,-14.502 -19.815,-21.633 l -13.582,-0.155 c 0.165,1.025 0.345,2.036 0.509,3.349 0.503,4.023 -0.503,3.017 -1.174,7.208 -0.67,4.191 0,1.676 -3.352,6.37 -3.353,4.693 -4.191,3.017 -6.538,5.699 -2.347,2.682 -0.335,2.514 1.341,7.208 1.677,4.694 0.335,2.682 -1.676,5.532 -2.012,2.85 -2.515,1.174 -3.856,4.694 -1.34,3.52 -2.011,4.023 -4.693,7.375 -2.682,3.353 -1.341,4.191 -0.335,8.047 1.005,3.855 0.838,1.341 0.502,3.855 -0.335,2.514 0.168,1.006 0.671,6.37 0.503,5.364 -0.838,2.85 -4.191,6.202 -3.352,3.353 -2.346,-0.838 -3.017,-3.254 -0.671,-2.418 -2.682,-4.289 -4.191,-4.959 -1.509,-0.671 -4.693,-0.671 -8.549,-1.006 -3.855,-0.336 -4.358,-0.671 -6.37,1.509 -2.011,2.178 -2.514,1.676 -5.197,2.178 -2.681,0.503 -1.34,-1.843 -3.017,-4.023 -1.676,-2.179 -1.509,0 -4.19,2.012 -2.683,2.011 -1.509,2.347 0.67,5.197 2.179,2.849 2.514,0.502 2.85,2.179 0.335,1.676 -0.336,1.844 0.838,3.185 1.173,1.341 0.67,0.502 0.503,3.352 -0.168,2.85 0,3.353 1.844,6.37 1.844,3.018 1.844,-0.335 2.347,1.509 0.503,1.844 0.167,1.341 1.341,3.017 1.173,1.677 3.185,1.509 3.52,5.7 0.335,4.19 -0.335,1.006 -4.358,1.844 -4.024,0.838 -1.006,0.167 -1.677,3.352 -0.671,3.185 -2.514,1.509 -4.694,0 -2.179,-1.509 0,-2.179 -0.503,-4.023 -0.503,-1.844 -1.34,0.168 -3.017,-1.844 -1.676,-2.011 -6.202,-3.352 -8.716,-3.185 -2.515,0.168 -0.503,0.838 0.167,3.52 0.671,2.682 1.006,1.174 1.174,4.359 0.167,3.185 0,0 -1.677,1.341 -1.676,1.341 -1.509,0.503 -4.526,1.844 -3.017,1.341 -0.838,1.341 -1.341,5.699 -0.503,4.358 -2.011,0.503 -3.688,-2.179 -1.676,-2.682 0.336,-3.353 -0.838,-5.532 -1.173,-2.179 -1.844,-0.67 -4.694,1.174 -2.849,1.843 -8.716,8.717 -9.052,10.895 -0.335,2.18 1.174,1.509 1.006,3.353 -0.167,1.844 -0.167,1.341 0.839,4.023 1.005,2.682 0,2.347 -0.168,6.873 -0.168,4.526 2.849,1.509 6.872,3.52 4.024,2.012 1.677,1.341 1.006,5.532 -0.67,4.191 -1.006,1.341 -3.184,1.844 -2.18,0.503 -3.018,4.694 -5.197,7.376 -2.179,2.682 -2.179,0.838 -5.197,0.503 -3.017,-0.336 -1.341,1.341 -2.011,6.872 -0.671,5.532 -1.173,1.509 -2.179,5.532 -1.006,4.023 -2.18,3.688 -5.7,5.7 -3.52,2.011 -2.011,-1.844 -4.191,-4.191 -2.179,-2.347 -1.508,-2.515 -2.681,-4.861 -1.174,-2.347 -3.521,-4.359 -6.874,-6.035 -3.352,-1.676 -2.514,-1.006 -6.034,1.509 -3.521,2.514 -3.018,1.006 -5.029,-2.18 -2.012,-3.185 -0.838,-2.682 -2.012,-5.531 -1.173,-2.85 -1.006,-2.347 0,-5.532 1.006,-3.185 4.862,-3.688 6.873,-6.035 2.012,-2.346 6.035,-4.358 8.047,-6.705 2.011,-2.347 0.335,-1.341 -0.671,-4.526 -1.006,-3.185 0,-4.023 -1.509,-6.873 -1.508,-2.849 -4.861,-3.017 -7.04,-4.861 -2.18,-1.844 -5.197,-2.85 -10.058,-3.017 -4.861,-0.168 -2.179,-1.006 -4.191,-2.012 -2.011,-1.006 -2.849,0.838 -4.861,3.185 -2.012,2.347 -2.179,1.844 -5.867,3.185 -3.688,1.341 -4.359,3.352 -5.699,6.035 -1.341,2.682 -1.174,0.335 -4.694,0.503 -3.52,0.167 -1.341,1.843 -2.682,5.531 -1.341,3.688 -1.844,2.347 -4.862,3.353 -3.017,1.006 -2.178,2.682 -4.023,7.208 -1.843,4.526 -1.676,2.012 -5.029,0.168 -3.352,-1.844 -0.502,-2.682 1.174,-5.868 1.676,-3.184 3.017,-3.52 4.526,-6.704 1.509,-3.186 0.838,-5.365 0.838,-8.55 0,-3.185 -0.838,-3.52 0.336,-8.381 1.173,-4.862 2.514,-1.006 4.861,-3.185 2.346,-2.179 0.838,-2.012 1.843,-4.191 1.006,-2.179 1.509,-1.844 1.342,-3.855 -0.168,-2.012 -0.168,-2.012 0.335,-3.185 0.503,-1.174 1.006,-2.85 0.838,-4.694 -0.167,-1.844 -1.844,-2.682 -2.85,-7.041 -1.005,-4.358 0.335,-1.508 3.018,-3.52 2.682,-2.011 1.676,-1.173 2.346,-4.358 0.671,-3.185 -0.67,-2.85 -3.52,-4.358 -2.849,-1.509 -3.017,1.173 -5.867,1.843 -2.849,0.671 -2.849,0 -4.023,-2.011 -1.173,-2.012 1.006,-1.844 3.353,-3.017 2.347,-1.174 1.508,-0.503 1.844,-2.515 0.335,-2.011 -2.347,-3.017 -7.544,-5.699 -5.196,-2.682 -3.185,-1.341 -4.861,-4.191 -1.676,-2.85 0.838,-1.676 2.682,-2.514 1.844,-0.839 3.185,0.335 6.37,-0.671 3.185,-1.006 1.844,-1.509 3.688,-2.179 1.844,-0.671 3.52,-0.168 5.699,0.67 2.179,0.838 5.7,0 6.705,-1.005 1.006,-1.006 3.521,-1.509 5.197,0 1.676,1.508 -1.006,2.179 -2.179,6.369 -1.173,4.191 -0.503,2.85 -0.671,5.868 -0.167,3.017 0.671,1.843 2.682,3.184 2.012,1.342 4.023,1.174 5.197,2.347 1.173,1.174 -0.503,1.341 -2.012,3.688 -1.508,2.347 0.838,2.514 3.018,2.514 2.179,0 3.52,-1.843 5.766,-1.508 2.246,0.335 1.777,2.514 5.297,2.85 3.521,0.335 2.012,-6.706 0.503,-9.388 -1.508,-2.682 -5.699,-1.676 -7.375,-3.184 -1.677,-1.509 0.335,-1.845 1.575,-3.521 1.24,-1.676 1.274,-2.011 0.771,-4.023 -0.503,-2.011 -0.67,-1.676 -3.017,-2.179 -2.347,-0.503 -2.179,-0.671 -3.017,-2.682 -0.838,-2.012 0.335,-1.173 1.005,-3.521 0.671,-2.346 1.174,-1.005 3.185,-2.179 2.012,-1.173 0.671,-1.844 0.168,-3.053 -0.503,-1.209 -1.844,-3.317 -4.191,-4.825 -2.347,-1.509 -5.699,-0.671 -8.046,-1.844 -2.347,-1.174 -2.514,-2.682 -4.694,-3.185 -2.179,-0.503 -1.341,0.67 -0.838,4.358 0.503,3.688 -1.005,3.856 -1.341,6.202 -0.335,2.347 -1.509,2.515 -3.855,3.688 -2.347,1.174 -7.376,1.509 -8.382,-0.838 -1.005,-2.347 0,-1.676 0.671,-4.526 0.67,-2.85 0.167,-1.676 -0.168,-3.52 -0.335,-1.844 -1.508,-0.503 -3.52,0.167 -2.012,0.671 -5.029,0.839 -6.873,1.845 -1.844,1.005 -0.838,4.861 -0.838,6.537 0,1.676 1.173,1.509 0.838,3.353 -0.335,1.844 0,0 -2.012,0.838 -2.011,0.838 -1.508,0.503 -2.849,1.341 -1.341,0.838 -7.208,1.006 -7.208,1.006 0,0 -4.527,1.676 -9.723,1.509 -5.196,-0.168 -0.503,-1.006 -1.844,-4.024 -1.341,-3.017 -2.179,-2.85 -4.19,-2.179 -2.012,0.671 -2.515,1.174 -5.365,3.52 -2.849,2.347 -0.67,2.347 -1.509,5.029 -0.838,2.682 -2.178,1.341 -4.693,-1.508 -2.514,-2.85 -0.335,-3.186 -1.173,-4.526 -0.838,-1.341 -1.844,-0.671 -5.029,0.167 -3.185,0.838 -4.023,2.85 -4.526,5.029 -0.503,2.179 0.67,2.347 3.855,5.867 3.185,3.52 0.503,2.682 0.671,4.628 0.167,1.946 0.838,2.748 2.011,7.441 1.174,4.694 -0.838,1.341 -3.52,4.191 -2.682,2.85 -3.855,3.856 -6.873,3.688 -3.017,-0.167 -3.353,-2.179 -4.191,-5.699 -0.838,-3.52 -1.005,-3.018 -2.346,-5.7 -1.342,-2.682 -0.671,-1.676 -0.168,-5.196 0.503,-3.521 0.168,-2.347 -1.006,-4.862 -1.173,-2.514 -3.688,-3.855 -6.37,-2.125 -2.682,1.73 -3.688,1.623 -5.364,3.802 -1.676,2.179 -0.838,1.844 -3.185,3.687 -2.347,1.845 -1.844,0 -2.682,-1.508 -0.838,-1.509 0.335,-2.347 1.174,-5.196 0.838,-2.85 -1.342,-1.006 -5.197,-2.515 -3.855,-1.509 -3.688,-0.335 -4.526,1.006 -0.838,1.341 -2.012,0.67 -3.185,3.017 -1.173,2.347 0,0 1.341,3.52 1.341,3.521 -1.006,1.509 -3.185,2.012 -2.179,0.503 -1.676,-1.006 -1.676,-3.52 0,-2.515 0.502,-2.682 -1.174,-4.305 -1.676,-1.623 -3.185,-0.221 -5.699,-0.054 -2.515,0.168 -1.844,0 -4.191,-1.341 -2.347,-1.341 -0.503,-3.185 -0.838,-6.537 -0.335,-3.353 1.174,-2.012 2.514,-5.029 1.341,-3.018 1.006,-2.012 1.006,-4.023 0,-2.012 -1.173,-1.844 -4.023,-2.012 -2.849,-0.168 -3.352,-0.503 -4.773,-2.347 -1.419,-1.844 -1.932,-2.179 -3.441,-4.526 -1.509,-2.347 -1.006,-0.67 -2.682,-1.844 -1.676,-1.173 -0.167,-2.011 0.503,-4.358 0.67,-2.347 1.509,-1.174 3.856,-2.012 2.346,-0.838 1.676,-1.005 1.676,-2.682 0,-1.676 -1.509,-2.011 -4.359,-4.19 -2.849,-2.18 -7.543,-5.029 -10.895,-7.209 -3.353,-2.179 -2.85,1.174 -6.203,2.515 -3.352,1.341 -2.849,1.006 -5.867,0.671 -3.017,-0.336 -3.185,-0.336 -6.202,0 -3.018,0.335 -5.029,0.167 -8.382,0.502 -3.352,0.336 -0.838,0.503 -3.017,2.012 -2.179,1.509 -5.532,0.335 -10.058,0 -4.526,-0.336 -3.52,-1.676 -5.699,-3.967 -2.179,-2.291 -2.347,-0.727 -5.532,0 -3.185,0.727 -6.202,0.95 -9.89,1.788 -3.688,0.838 -1.844,0.335 -2.347,-1.006 -0.503,-1.341 -2.514,-2.682 -4.694,-2.85 -2.179,-0.167 -9.219,1.509 -13.578,1.925 -4.358,0.416 -3.855,-0.081 -6.537,-1.422 -2.682,-1.341 -1.509,0.838 -3.52,0.67 -2.012,-0.167 -4.023,-0.167 -7.879,-0.167 -3.856,0 -3.017,1.173 -5.867,0.868 -2.85,-0.305 -2.179,-0.533 -5.532,-0.701 -3.352,-0.167 -1.844,-0.67 -4.861,-1.34 -3.017,-0.671 -8.549,-0.336 -10.393,-1.341 -1.844,-1.006 -5.364,-1.845 -7.543,-2.85 -2.18,-1.006 -0.839,-0.168 -2.683,1.844 -1.843,2.011 -3.017,-0.336 -4.861,0.838 -1.844,1.173 -2.011,1.676 -4.526,3.185 -2.514,1.509 -4.358,-2.012 -6.37,-4.023 -2.011,-2.012 -2.179,-3.017 -4.358,-3.185 -0.898,-0.069 -1.462,-0.483 -1.884,-0.979 l -411.24,-4.721 -2.137,-2.389 h 35.454 c 0,0 -1.887,-1.131 -1.132,-3.269 0.754,-2.137 3.771,-3.017 3.771,-4.274 0,-1.257 -2.011,-1.509 -2.011,-3.772 0,-2.263 4.275,-8.549 7.166,-10.058 2.892,-1.508 3.897,-0.628 4.149,-2.137 0.251,-1.508 -1.131,-2.514 -1.634,-3.646 -0.503,-1.131 -4.652,-0.754 -6.412,-2.766 -1.76,-2.011 -2.892,-3.645 -2.892,-3.645 h -20.618 c 0,0 -5.155,-0.881 -7.292,-0.755 -2.138,0.126 -3.018,-2.137 0.377,-2.137 3.394,0 2.137,-0.629 5.28,0 3.144,0.629 2.892,1.131 6.286,0.503 3.395,-0.629 4.778,0.251 6.789,0.251 2.012,0 1.006,0.503 4.526,0 3.521,-0.503 3.521,-0.88 2.766,-2.263 -0.754,-1.383 -1.634,-2.011 -0.88,-4.274 0.755,-2.263 3.143,-2.263 3.143,-4.149 0,-1.886 0.378,-2.515 -1.508,-1.886 -1.886,0.629 -9.429,1.257 -10.561,0.88 -1.131,-0.377 -3.897,-1.383 -1.886,-3.395 2.012,-2.011 5.155,-1.634 7.418,-1.131 2.263,0.503 9.178,2.137 12.069,2.012 2.892,-0.126 1846.611,18.858 1847.868,18.858 1.258,0 2.515,1.257 3.269,2.012 0.755,0.754 -6.034,0.502 -8.549,1.005 -2.514,0.503 -5.783,-2.011 -5.029,0.755 0.754,2.766 -0.754,0.503 0.754,2.766 1.509,2.263 0.503,2.011 1.258,4.023 0.754,2.011 0.754,1.508 4.023,1.508 3.269,0 5.532,-0.503 8.549,1.258 3.017,1.76 4.023,-0.252 3.017,1.76 -1.005,2.011 2.012,3.017 -1.005,2.011 -3.018,-1.005 -4.526,-3.269 -6.789,-2.514 -2.263,0.754 -5.029,-1.257 -4.778,0.503 0.252,1.76 1.257,-0.755 4.023,4.023 2.766,4.777 3.018,4.023 2.012,8.298 -1.006,4.274 -2.012,5.028 -3.52,6.789 -1.509,1.76 -2.515,-1.509 -1.509,1.76 1.006,3.268 2.514,2.011 2.766,4.526 0.251,2.514 -2.012,3.017 -0.503,4.526 1.509,1.508 4.777,0.251 8.549,1.508 3.772,1.258 12.651,8.82 3.688,8.717"
             style="fill:#000000;fill-opacity:1;fill-rule:nonzero;stroke:none"
             id="path22" /></g><g
           id="g24"
           transform="translate(508.105,863.2748)"><path
             d="M 0,0 C 0.64,-0.19 1.43,-0.224 1.878,0.272 2.065,0.481 2.163,0.755 2.329,0.981 3.193,2.159 5.445,1.621 6.109,2.922 6.53,3.745 5.99,4.796 6.344,5.649 6.682,6.46 7.725,6.837 7.977,7.679 8.153,8.269 7.87,8.907 7.473,9.379 7.075,9.851 6.566,10.217 6.167,10.686 6.017,10.862 5.882,11.052 5.708,11.203 5.441,11.434 5.098,11.557 4.755,11.642 2.287,12.254 -0.247,11.094 -2.471,9.859 -3.25,9.427 -4.18,8.971 -4.989,9.344 -5.263,9.47 -5.497,9.686 -5.788,9.767 -6.296,9.908 -6.841,9.588 -7.127,9.146 -7.414,8.704 -7.501,8.165 -7.581,7.645 -7.895,5.608 -8.247,2.999 -6.616,1.42 -4.576,-0.556 -2.356,0.698 0,0"
             style="fill:#000000;fill-opacity:1;fill-rule:nonzero;stroke:none"
             id="path26" /></g><g
           id="g28"
           transform="translate(523.876,877.3525)"><path
             d="m 0,0 c 1.561,-2.289 3.913,-4.402 6.905,-3.589 0.893,0.242 1.73,0.719 2.652,0.795 1.626,0.133 3.274,-1 4.814,-0.463 0.476,0.166 0.926,0.488 1.428,0.443 0.976,-0.086 1.264,-1.35 1.365,-2.325 0.228,-2.218 0.981,-4.636 2.926,-5.727 0.686,-0.385 1.463,-0.567 2.229,-0.746 1.746,-0.407 3.493,-0.814 5.239,-1.221 0.388,-0.091 0.781,-0.181 1.179,-0.165 0.417,0.017 0.818,0.151 1.214,0.284 3.251,1.093 6.503,2.186 9.755,3.28 1.094,0.367 2.245,0.772 2.995,1.65 1.386,1.621 0.855,4.049 0.623,6.169 -0.35,3.186 0.181,6.463 1.518,9.375 0.158,0.344 0.33,0.695 0.338,1.073 0.025,1.034 -1.104,1.667 -2.075,2.026 -1.766,0.653 -3.574,1.195 -5.408,1.621 -0.383,0.09 -0.771,0.174 -1.163,0.158 -0.425,-0.018 -0.833,-0.153 -1.236,-0.286 -1.882,-0.625 -3.764,-1.249 -5.646,-1.873 -0.467,-0.155 -0.962,-0.312 -1.444,-0.21 -1.012,0.214 -1.455,1.434 -1.447,2.469 0.009,1.034 0.281,2.102 -0.051,3.083 -0.713,2.107 -3.483,2.406 -5.514,3.315 -2.806,1.257 -4.988,4.287 -8.06,4.155 C 12.352,23.257 11.59,23.007 10.806,22.97 9.091,22.889 7.296,23.819 5.719,23.139 5.056,22.854 4.537,22.315 4.082,21.755 2.726,20.085 1.769,18.107 0.303,16.533 -1.088,15.041 -2.879,13.975 -4.324,12.535 -5.77,11.095 -6.886,9.039 -6.379,7.063 -3.323,5.314 -1.905,2.793 0,0"
             style="fill:#000000;fill-opacity:1;fill-rule:nonzero;stroke:none"
             id="path30" /></g><g
           id="g32"
           transform="translate(602.7332,879.0756)"><path
             d="m 0,0 c -0.348,0.142 -0.654,0.375 -1.006,0.507 -1.037,0.389 -2.186,-0.178 -3.051,-0.869 -0.865,-0.692 -1.657,-1.547 -2.717,-1.87 -0.425,-0.129 -0.888,-0.17 -1.26,-0.413 -0.847,-0.552 -0.784,-1.871 -0.235,-2.72 0.751,-1.161 2.102,-1.833 2.784,-3.041 0.507,-0.9 -0.132,-1.762 1.532,-1.677 2.088,0.105 4.136,0.894 5.755,2.217 0.357,0.292 0.697,0.613 0.949,0.998 0.731,1.119 0.614,2.568 0.471,3.896 -0.093,0.863 -0.248,1.834 -0.959,2.33 C 1.615,-0.19 0.731,-0.299 0,0"
             style="fill:#000000;fill-opacity:1;fill-rule:nonzero;stroke:none"
             id="path34" /></g><g
           id="g36"
           transform="translate(574.6152,917.6589)"><path
             d="m 0,0 c 1.047,-0.863 2.356,-1.781 3.645,-1.357 0.828,0.272 1.455,1.066 2.322,1.151 0.966,0.096 1.773,-0.717 2.714,-0.955 1.202,-0.303 2.492,0.362 3.692,0.054 1.472,-0.378 2.185,-1.988 3.18,-3.137 2.439,-2.815 6.999,-3.076 9.297,-6.009 0.78,-0.996 1.231,-2.232 2.08,-3.171 0.729,-0.806 1.702,-1.34 2.655,-1.86 1.551,-0.845 3.102,-1.69 4.653,-2.535 0.776,-0.422 1.581,-0.872 2.075,-1.604 0.494,-0.732 0.558,-1.836 -0.101,-2.425 -3.453,0.599 -6.907,1.198 -10.36,1.797 -0.529,-2.621 1.47,-5.475 4.113,-5.874 0.784,-0.119 1.596,-0.049 2.361,-0.257 1.892,-0.514 2.926,-2.496 3.737,-4.281 0.407,-0.896 0.825,-1.865 0.641,-2.833 -0.234,-1.233 -1.334,-2.69 -0.384,-3.51 1.352,-0.164 2.703,-0.328 4.054,-0.492 0.537,-0.065 1.125,-0.156 1.479,-0.565 0.267,-0.308 0.346,-0.739 0.586,-1.069 0.521,-0.717 1.566,-0.718 2.387,-1.053 1.812,-0.74 2.366,-3.2 1.672,-5.031 -0.694,-1.83 -2.261,-3.163 -3.767,-4.414 -1.154,-0.959 -7.911,-6.48 -2.682,-6.81 2.848,-0.181 7.109,3.47 9.428,4.797 0.48,0.275 0.98,0.569 1.269,1.04 0.398,0.651 0.304,1.481 0.511,2.216 0.237,0.839 0.854,1.513 1.239,2.295 0.385,0.783 0.466,1.867 -0.22,2.405 -0.466,0.364 -1.168,0.376 -1.55,0.827 -0.279,0.33 -0.303,0.801 -0.281,1.232 0.223,4.172 4.067,7.821 8.245,7.826 1.69,0.003 3.989,-0.141 4.427,1.492 0.317,1.183 -0.757,2.239 -1.706,3.013 -4.525,3.691 -8.682,7.835 -12.388,12.348 -0.933,1.137 -1.851,2.31 -3.014,3.211 -1.329,1.03 -2.918,1.659 -4.357,2.529 -3.957,2.393 -6.961,6.683 -11.518,7.469 -0.931,0.161 -1.959,0.191 -2.673,0.81 -0.445,0.386 -0.692,0.945 -0.95,1.475 -2.52,5.181 -7.065,9.038 -11.483,12.736 -1.306,1.093 -2.708,2.23 -4.394,2.468 C 8.796,14.208 6.906,13.346 5.095,13.758 4.31,13.937 3.591,14.348 2.804,14.519 2.016,14.691 1.062,14.543 0.636,13.858 0.392,13.466 0.359,12.954 0.052,12.609 -0.517,11.971 -1.575,12.293 -2.385,12.016 -3.526,11.626 -3.869,10.207 -4.031,9.012 -4.207,7.717 -4.374,6.384 -4.057,5.116 -3.518,2.966 -1.71,1.409 0,0"
             style="fill:#000000;fill-opacity:1;fill-rule:nonzero;stroke:none"
             id="path38" /></g><g
           id="g40"
           transform="translate(641.2606,906.2437)"><path
             d="m 0,0 c 1.535,1.07 3.365,1.617 5.167,2.122 1.828,0.512 3.746,1.043 5.117,2.355 1.372,1.313 1.936,3.684 0.68,5.107 -1.4,1.587 -3.947,1.108 -5.973,1.72 C 4.318,11.507 3.669,11.845 2.966,11.865 1.341,11.913 0.21,10.347 -1.135,9.435 -3.159,8.063 -5.958,8.089 -7.792,6.473 -8.634,5.732 -9.257,4.659 -10.322,4.307 -11.687,3.856 -13.31,4.77 -14.568,4.073 -15.692,3.45 -15.854,1.82 -15.32,0.651 c 0.535,-1.168 1.559,-2.023 2.435,-2.963 0.41,-0.44 0.802,-0.924 0.968,-1.502 0.123,-0.424 0.122,-0.894 0.352,-1.271 0.226,-0.371 0.633,-0.583 1.01,-0.798 2.171,-1.239 4.02,-5.25 6.453,-5.57 3.724,-0.49 1.304,5.038 1.327,6.816 C -2.751,-2.766 -1.535,-1.07 0,0"
             style="fill:#000000;fill-opacity:1;fill-rule:nonzero;stroke:none"
             id="path42" /></g><g
           id="g44"
           transform="translate(623.0326,921.0424)"><path
             d="m 0,0 c -0.079,-0.27 -0.401,-0.402 -0.681,-0.374 -0.279,0.029 -0.53,0.175 -0.785,0.295 -1.699,0.802 -3.886,0.415 -5.207,-0.922 -0.258,-0.261 -0.491,-0.57 -0.553,-0.931 -0.051,-0.304 0.025,-0.615 0.11,-0.912 0.316,-1.096 0.769,-2.151 1.346,-3.135 1.416,0.843 3.238,-0.529 4.524,-1.027 0.659,-0.254 2.57,-1.208 2.165,0.77 -0.056,0.277 -0.21,0.526 -0.261,0.804 -0.076,0.413 0.082,0.827 0.187,1.234 C 1.213,-2.768 0.893,-1.176 0,0"
             style="fill:#000000;fill-opacity:1;fill-rule:nonzero;stroke:none"
             id="path46" /></g><g
           id="g48"
           transform="translate(573.6565,951.8856)"><path
             d="m 0,0 c 0.85,-0.381 1.789,-0.513 2.712,-0.641 1.973,-0.272 4.206,-0.475 5.737,0.798 0.493,0.41 0.907,0.97 1.525,1.144 1.1,0.308 2.149,-0.873 2.194,-2.016 0.157,-3.982 -4.919,-7.371 -1.72,-11.49 2.971,-3.824 6.715,4.183 7.908,6.376 0.754,1.387 1.402,2.892 1.399,4.47 -0.002,1.047 -0.292,2.076 -0.306,3.122 -0.016,1.18 0.318,2.336 0.414,3.512 C 19.96,6.451 19.764,7.751 18.899,8.554 17.124,10.2 14.182,8.657 11.86,9.342 10.652,9.698 9.411,10.668 8.281,10.112 7.802,9.876 7.475,9.401 7.001,9.155 6.518,8.905 5.947,8.921 5.403,8.944 3.396,9.026 1.389,9.109 -0.619,9.192 -1.211,9.216 -1.856,9.225 -2.333,8.872 -2.761,8.554 -2.953,8.011 -3.075,7.491 -3.745,4.642 -2.671,1.197 0,0"
             style="fill:#000000;fill-opacity:1;fill-rule:nonzero;stroke:none"
             id="path50" /></g><g
           id="g52"
           transform="translate(540.1833,952.2955)"><path
             d="m 0,0 c -0.166,-0.442 -0.142,-1.023 -0.548,-1.264 -0.29,-0.173 -0.656,-0.072 -0.987,-0.006 -1.428,0.285 -2.989,-0.242 -3.953,-1.334 -0.963,-1.092 -1.291,-2.707 -0.831,-4.088 0.21,-0.629 0.568,-1.207 0.725,-1.851 0.271,-1.108 -0.079,-2.3 0.205,-3.405 0.233,-0.907 0.865,-1.651 1.479,-2.359 0.529,-0.611 1.058,-1.222 1.587,-1.832 0.946,-1.092 1.899,-2.191 3.025,-3.096 3.059,-2.459 6.258,-0.042 9.24,1.482 1.789,0.915 3.578,1.83 5.367,2.744 0.567,0.29 1.201,0.669 1.296,1.298 0.043,0.284 -0.035,0.57 -0.113,0.846 -0.547,1.93 -1.093,3.859 -1.639,5.789 -0.311,1.1 -0.649,2.247 -1.438,3.074 -0.842,0.882 -2.081,1.274 -2.996,2.078 -0.541,0.475 -0.953,1.08 -1.488,1.561 C 7.35,1.057 5.022,1.161 2.897,1.19 1.78,1.205 0.392,1.046 0,0"
             style="fill:#000000;fill-opacity:1;fill-rule:nonzero;stroke:none"
             id="path54" /></g><g
           id="g56"
           transform="translate(521.533,986.0141)"><path
             d="m 0,0 c 0.246,-0.421 0.668,-0.703 1.076,-0.97 1.221,-0.801 2.442,-1.602 3.664,-2.402 0.527,-0.346 1.079,-0.701 1.706,-0.777 1.743,-0.208 2.866,1.545 4.462,1.843 1.619,0.303 2.974,-0.852 4.57,0.183 1.071,0.695 1.81,1.797 2.808,2.593 1.409,1.125 3.348,1.663 4.31,3.188 0.452,0.716 0.627,1.57 0.725,2.41 0.493,4.239 -0.866,8.66 -3.654,11.89 -1.979,2.29 -4.977,4.046 -7.943,3.444 C 9.344,20.918 7.519,19.061 5.851,17.294 4.23,15.576 2.568,13.795 1.741,11.583 1.495,10.925 1.327,10.238 1.05,9.593 0.816,9.048 0.507,8.539 0.263,7.998 -0.683,5.904 -0.591,3.499 -0.323,1.217 -0.273,0.797 -0.214,0.365 0,0"
             style="fill:#000000;fill-opacity:1;fill-rule:nonzero;stroke:none"
             id="path58" /></g><g
           id="g60"
           transform="translate(472.0309,1023.2308)"><path
             d="m 0,0 c 0.225,-1.564 0.845,-3.042 1.51,-4.475 0.456,-0.983 0.994,-2.016 1.95,-2.527 0.559,-0.299 1.203,-0.384 1.807,-0.573 1.036,-0.322 1.952,-0.946 2.966,-1.331 2.345,-0.893 5.45,0.005 7.426,1.368 1.303,0.899 2.348,2.248 2.633,3.805 0.233,1.275 -0.049,2.59 -0.475,3.814 -0.231,0.665 -0.51,1.324 -0.94,1.881 C 16.294,2.716 15.471,3.24 14.664,3.748 12.492,5.117 10.249,6.515 7.721,6.964 5.193,7.415 2.279,6.692 0.855,4.555 -0.022,3.241 -0.226,1.564 0,0"
             style="fill:#000000;fill-opacity:1;fill-rule:nonzero;stroke:none"
             id="path62" /></g><g
           id="g64"
           transform="translate(454.2491,1061.1595)"><path
             d="m 0,0 c -0.083,-2.985 1.174,-5.982 3.361,-8.015 0.844,-0.784 1.919,-1.457 3.066,-1.352 0.568,0.052 1.121,0.294 1.691,0.246 2.377,-0.199 5.64,-4.088 6.941,0.347 0.35,1.196 0.375,2.576 1.231,3.484 0.461,0.488 1.101,0.762 1.628,1.178 1.442,1.138 1.808,3.422 0.795,4.954 -0.542,0.82 -1.431,1.472 -1.594,2.442 -0.165,0.974 0.472,1.914 0.482,2.902 C 17.61,7.185 16.976,8.08 16.247,8.764 14.175,10.705 11.295,11.47 8.542,12.167 7.539,12.421 6.401,12.656 5.531,12.096 4.404,11.37 4.235,9.614 3.034,9.019 2.295,8.652 1.356,8.845 0.65,8.418 -0.037,8.002 -0.292,7.112 -0.254,6.31 -0.216,5.508 0.051,4.734 0.152,3.937 0.319,2.632 0.036,1.315 0,0"
             style="fill:#000000;fill-opacity:1;fill-rule:nonzero;stroke:none"
             id="path66" /></g><g
           id="g68"
           transform="translate(608.6777,1003.7706)"><path
             d="m 0,0 c 1.141,-1.085 2.409,-2.12 3.332,-3.38 0.63,-0.86 0.537,-2.038 2.167,-1.614 0.85,0.221 1.524,0.853 2.292,1.28 2.324,1.296 5.456,0.708 7.555,2.344 1.571,1.223 2.089,3.321 2.98,5.101 0.865,1.725 2.137,3.217 3.06,4.912 0.923,1.695 1.483,3.753 0.784,5.552 -0.773,1.988 -2.849,3.145 -4.014,4.931 -0.546,0.837 -0.887,1.807 -1.539,2.565 -1.334,1.552 -3.648,1.842 -5.675,1.554 C 4.655,22.352 -0.533,16.463 -0.625,10.114 -0.658,7.842 -0.12,5.527 -0.672,3.322 -0.846,2.627 -1.128,1.9 -0.911,1.216 -0.756,0.728 -0.371,0.353 0,0"
             style="fill:#000000;fill-opacity:1;fill-rule:nonzero;stroke:none"
             id="path70" /></g><g
           id="g72"
           transform="translate(632.6583,995.6503)"><path
             d="m 0,0 c -0.169,-0.224 -0.472,-0.291 -0.75,-0.337 -1.802,-0.297 -3.643,-0.353 -5.46,-0.166 -2.003,0.206 -4.294,0.624 -5.811,-0.7 -1.393,-1.216 -1.438,-3.359 -1.113,-5.179 0.566,-3.162 2.353,-6.543 5.492,-7.229 0.94,-0.205 1.924,-0.145 2.859,-0.367 0.936,-0.222 1.886,-0.845 2.049,-1.793 l -0.281,2.509 c 0.69,-0.596 0.631,-1.694 0.309,-2.547 -0.322,-0.853 -0.851,-1.651 -0.929,-2.56 -0.201,-2.316 2.399,-3.749 3.678,-5.69 0.696,-1.055 1.13,-2.445 2.3,-2.922 0.379,-0.154 0.795,-0.19 1.204,-0.198 3.061,-0.065 6.121,1.339 8.068,3.702 0.764,0.927 1.362,1.989 1.777,3.116 0.393,1.067 1.012,2.46 2.134,2.281 0.566,-0.091 0.964,-0.583 1.412,-0.94 1.261,-1.006 3.02,-0.978 4.624,-1.154 1.604,-0.176 3.435,-0.836 3.877,-2.387 -1.621,-2.19 -1.333,-5.57 0.633,-7.455 0.255,-0.245 0.548,-0.473 0.895,-0.542 0.683,-0.136 1.307,0.364 1.873,0.772 1.984,1.432 4.553,2.026 6.965,1.613 1.077,-0.185 2.439,-0.453 3.049,0.454 0.57,0.847 -0.004,2.183 0.71,2.914 0.244,0.25 0.591,0.365 0.897,0.533 1.941,1.063 1.899,3.779 2.372,5.94 0.351,1.606 1.112,3.088 1.865,4.549 1.611,3.126 3.222,6.252 4.833,9.377 0.548,1.063 1.111,2.197 1.014,3.389 -0.107,1.316 -0.998,2.428 -1.934,3.359 -1.641,1.633 -3.556,3.006 -5.68,3.928 -1.016,0.442 -2.079,0.781 -3.061,1.294 -1.781,0.928 -3.221,2.382 -4.8,3.622 -2.489,1.955 -5.374,3.402 -8.428,4.23 -0.659,0.178 -1.355,0.343 -1.862,0.8 -0.733,0.662 -0.872,1.735 -1.162,2.679 -0.982,3.193 -3.957,5.285 -6.742,7.131 -1.516,1.005 -3.146,2.047 -4.966,2.065 -0.562,0.005 -1.17,-0.113 -1.551,-0.528 C 10.071,27.249 9.96,26.817 9.833,26.411 8.888,23.37 6.663,20.925 4.515,18.574 1.905,15.718 -0.82,12.54 -1.119,8.683 -1.323,6.046 -0.348,3.478 0.095,0.87 0.146,0.574 0.181,0.24 0,0"
             style="fill:#000000;fill-opacity:1;fill-rule:nonzero;stroke:none"
             id="path74" /></g><g
           id="g76"
           transform="translate(665.3357,1016.8119)"><path
             d="m 0,0 c 0.225,-0.155 0.371,-0.397 0.531,-0.62 0.871,-1.21 2.9,-3.401 4.094,-1.935 0.48,0.59 0.962,1.182 1.364,1.827 C 6.326,-0.187 6.611,0.41 6.636,1.046 6.662,1.682 6.377,2.363 5.813,2.658 5.529,2.807 5.199,2.849 4.914,2.996 4.069,3.432 3.911,4.576 3.278,5.286 2.846,5.771 2.218,6.024 1.614,6.262 1.217,6.417 0.743,6.567 0.388,6.331 0.218,6.218 0.11,6.035 0.008,5.858 -0.275,5.368 -0.558,4.88 -0.84,4.391 -1.222,3.73 -1.613,3.045 -1.699,2.286 -1.785,1.528 -1.486,0.67 -0.799,0.336 -0.539,0.21 -0.239,0.164 0,0"
             style="fill:#000000;fill-opacity:1;fill-rule:nonzero;stroke:none"
             id="path78" /></g><g
           id="g80"
           transform="translate(698.8161,985.4662)"><path
             d="m 0,0 c -0.492,-2.429 0.232,-4.967 1.408,-7.149 1.281,-2.374 3.084,-4.443 4.293,-6.855 0.487,-0.971 0.857,-2.194 0.244,-3.091 -0.214,-0.314 -0.536,-0.562 -0.66,-0.921 -0.304,-0.88 0.769,-1.642 1.697,-1.719 0.929,-0.077 1.94,0.147 2.741,-0.329 1.553,-0.925 0.855,-3.259 1.03,-5.058 0.072,-0.734 0.323,-1.437 0.572,-2.131 0.67,-1.863 1.342,-3.732 2.253,-5.489 0.884,-1.704 1.984,-3.284 3.081,-4.858 3.497,-5.024 7.035,-10.094 11.571,-14.204 -1.38,0.256 -2.761,0.511 -4.142,0.766 -0.872,0.161 -2.14,0.026 -2.156,-0.861 3.753,-1.643 7.506,-3.285 11.259,-4.927 0.723,-0.317 1.457,-0.64 2.072,-1.136 0.702,-0.566 1.213,-1.327 1.723,-2.07 3.23,-4.7 6.87,-9.119 10.865,-13.189 1.183,1.381 3.749,1.105 4.612,-0.494 0.999,1.722 1.391,3.789 1.092,5.757 -0.115,0.753 -0.305,1.604 0.152,2.213 0.443,0.59 1.282,0.665 1.947,0.983 1.369,0.652 1.929,2.311 2.06,3.821 0.132,1.511 -0.018,3.082 0.521,4.499 0.531,1.395 1.691,2.52 2.026,3.975 0.363,1.578 -0.315,3.188 -0.978,4.665 -0.782,1.745 -1.566,3.49 -2.349,5.235 -0.506,1.127 -1.52,2.478 -2.66,2.002 -0.433,3.444 -0.801,6.898 -1.106,10.357 -1.805,0.501 -3.876,0.967 -5.439,-0.067 -1.48,-0.98 -1.908,-2.911 -2.41,-4.614 -0.608,-2.065 -1.551,-4.122 -3.21,-5.493 -1.66,-1.371 -4.17,-1.88 -6.002,-0.75 -0.532,0.329 -0.99,0.778 -1.563,1.028 -1.088,0.474 -2.479,0.181 -3.393,0.937 -0.622,0.514 -0.826,1.36 -1.09,2.121 -0.772,2.226 -2.301,4.095 -3.8,5.912 -1.985,2.405 -3.983,4.825 -6.357,6.848 -2.335,1.989 -5.222,3.902 -5.725,6.927 -0.099,0.596 -0.098,1.217 -0.314,1.781 -0.427,1.113 -1.759,1.789 -2.909,1.476 0.199,1.589 0.258,3.516 -1.053,4.436 C 9.581,-9.439 9.204,-9.303 8.874,-9.088 7.17,-7.98 7.37,-5.502 6.998,-3.504 6.435,-0.476 3.97,2.111 0.973,2.82 0.097,3.028 -1.042,2.963 -1.423,2.147 -1.559,1.853 -1.563,1.516 -1.55,1.192 c 0.061,-1.52 0.44,-3.027 1.106,-4.395 z"
             style="fill:#000000;fill-opacity:1;fill-rule:nonzero;stroke:none"
             id="path82" /></g><g
           id="g84"
           transform="translate(784.222,968.1937)"><path
             d="M 0,0 C 0.527,0.173 1.011,0.594 1.093,1.143 1.123,1.349 1.096,1.559 1.069,1.765 0.91,2.98 0.751,4.195 0.591,5.41 0.558,5.667 0.507,5.953 0.298,6.105 0.009,6.315 -0.404,6.145 -0.672,5.91 -0.941,5.675 -1.174,5.368 -1.517,5.27 -1.815,5.185 -2.131,5.277 -2.435,5.34 -3.057,5.469 -3.704,5.471 -4.327,5.347 -4.694,5.275 -5.074,5.143 -5.303,4.847 -5.721,4.307 -5.445,3.529 -5.155,2.909 -4.794,2.137 -4.42,1.348 -3.813,0.749 -3.205,0.15 -2.305,-0.227 -1.488,0.015 L -1.651,-0.118 C -1.097,-0.147 -0.527,-0.173 0,0"
             style="fill:#000000;fill-opacity:1;fill-rule:nonzero;stroke:none"
             id="path86" /></g><g
           id="g88"
           transform="translate(791.1462,968.4609)"><path
             d="m 0,0 c -1.386,0.402 -2.883,-0.653 -3.381,-2.006 -0.499,-1.354 -0.211,-2.876 0.307,-4.222 0.917,-0.155 1.85,-0.17 2.78,-0.156 0.158,-0.126 0.362,-0.203 0.566,-0.193 0.385,0.02 0.727,0.243 1.048,0.458 0.668,0.45 1.404,1.011 1.458,1.814 0.026,0.381 -0.111,0.752 -0.247,1.108 C 2.028,-1.877 1.356,-0.393 0,0"
             style="fill:#000000;fill-opacity:1;fill-rule:nonzero;stroke:none"
             id="path90" /></g><g
           id="g92"
           transform="translate(797.6541,969.3286)"><path
             d="M 0,0 C 3.342,-2.012 11.047,-1.206 9.227,4.147 8.692,5.718 7.604,7.047 7.01,8.597 6.47,10.008 6.203,11.766 4.85,12.439 4.317,12.704 3.703,12.74 3.109,12.77 1.367,12.86 -0.595,12.871 -1.838,11.648 -4.524,9.007 -3.19,1.921 0,0"
             style="fill:#000000;fill-opacity:1;fill-rule:nonzero;stroke:none"
             id="path94" /></g><g
           id="g96"
           transform="translate(782.5943,1038.8019)"><path
             d="m 0,0 c 1.233,-0.405 2.536,-0.976 3.149,-2.121 0.302,-0.564 0.403,-1.216 0.662,-1.802 0.606,-1.371 1.977,-2.214 3.269,-2.972 1.92,-1.126 3.841,-2.253 5.761,-3.379 0.542,-0.317 1.092,-0.642 1.513,-1.108 0.862,-0.952 1.046,-2.326 1.086,-3.61 0.073,-2.334 -0.201,-4.679 -0.81,-6.933 -0.122,-0.452 -0.258,-0.935 -0.113,-1.38 0.129,-0.394 0.455,-0.687 0.773,-0.951 3.353,-2.781 6.481,-3.981 10.798,-4.076 1.117,3.298 3.617,6.105 6.766,7.593 0.993,0.469 2.156,0.921 2.545,1.949 0.149,0.395 0.159,0.827 0.246,1.24 0.296,1.416 1.443,2.474 2.165,3.728 1.186,2.061 1.183,4.614 0.692,6.942 -0.49,2.328 -1.423,4.54 -2.007,6.846 -0.247,0.972 -0.456,2.01 -1.13,2.752 -0.495,0.544 -1.183,0.863 -1.852,1.168 -1.618,0.738 -3.236,1.476 -4.855,2.214 -0.493,0.225 -1.001,0.46 -1.37,0.857 -0.626,0.672 -0.736,1.668 -1.182,2.47 -0.935,1.684 -3.219,2.335 -3.985,4.102 -0.549,1.266 -0.158,2.784 -0.674,4.065 -0.451,1.116 -1.619,1.902 -2.823,1.898 C 17.42,19.489 16.256,18.697 15.812,17.578 15.338,16.385 15.659,15.031 15.471,13.761 15.066,11.015 12.468,9.217 10.104,7.76 7.064,5.885 3.566,3.935 0.115,4.853 -1.079,5.171 -2.424,5.803 -3.453,5.118 -4.533,4.398 -4.35,2.642 -3.454,1.703 -2.558,0.764 -1.233,0.405 0,0"
             style="fill:#000000;fill-opacity:1;fill-rule:nonzero;stroke:none"
             id="path98" /></g><g
           id="g100"
           transform="translate(881.8651,1017.2617)"><path
             d="M 0,0 C -0.118,0.319 -0.382,0.558 -0.636,0.785 -1.274,1.351 -2.004,1.951 -2.856,1.917 -3.93,1.875 -4.694,0.856 -5.7,0.474 c -2.393,-0.908 -4.752,2.009 -7.295,1.716 -0.114,2.862 -2.479,5.47 -5.316,5.862 -2.011,0.278 -4.014,-0.445 -5.89,-1.219 -2.138,-0.883 -4.324,-1.914 -5.768,-3.721 -1.256,-1.576 -1.932,-3.71 -3.666,-4.736 -0.361,-0.213 -0.771,-0.381 -1.024,-0.715 -0.242,-0.32 -0.299,-0.739 -0.348,-1.138 -0.344,-2.789 -0.687,-5.578 -1.03,-8.367 -0.085,-0.69 -0.165,-1.416 0.105,-2.056 0.525,-1.242 1.828,-1.374 2.996,-1.485 1.279,-0.122 2.384,-0.721 3.607,-0.783 1.674,-0.085 3.353,-0.048 5.022,0.111 0.643,0.061 1.341,0.166 1.783,0.638 1.029,1.1 -0.156,3.086 0.672,4.343 0.631,0.956 2.075,0.925 3.122,0.461 1.048,-0.464 1.967,-1.244 3.087,-1.482 0.56,-0.119 1.223,-0.136 1.564,-0.595 0.216,-0.289 0.235,-0.678 0.392,-1.002 0.339,-0.697 1.263,-0.938 2.014,-0.744 0.75,0.194 1.367,0.715 1.954,1.221 0.773,0.665 1.561,1.349 2.059,2.239 0.497,0.889 0.652,2.041 0.126,2.915 -0.395,0.656 -1.169,1.314 -0.854,2.012 2.903,0.529 5.626,2.002 7.657,4.142 C -0.236,-1.387 0.25,-0.675 0,0"
             style="fill:#000000;fill-opacity:1;fill-rule:nonzero;stroke:none"
             id="path102" /></g><g
           id="g104"
           transform="translate(897.707,1024.8207)"><path
             d="M 0,0 C 0.138,0.296 0.155,0.632 0.169,0.958 0.215,1.959 0.258,2.977 0.018,3.95 -0.222,4.922 -0.791,5.862 -1.687,6.312 -2.667,6.805 -3.834,6.639 -4.916,6.46 -5.536,6.358 -6.187,6.242 -6.67,5.842 -7.367,5.263 -7.521,4.26 -7.508,3.354 -7.482,1.678 -6.73,-0.031 -5.149,-0.779 -3.831,-1.403 -0.731,-1.565 0,0"
             style="fill:#000000;fill-opacity:1;fill-rule:nonzero;stroke:none"
             id="path106" /></g><g
           id="g108"
           transform="translate(865.2686,982.3696)"><path
             d="M 0,0 C -0.282,1.375 -1.598,2.372 -2.982,2.614 -4.365,2.856 -5.787,2.468 -7.067,1.89 c -2.585,-1.167 -4.749,-3.078 -6.871,-4.96 -1.19,-1.057 -2.407,-2.147 -3.137,-3.561 -0.846,-1.639 -0.862,-3.858 0.459,-5.146 1.183,-1.154 3.01,-1.246 4.663,-1.269 2.31,-0.033 5.004,-0.176 7.264,0.297 2.607,0.545 2.995,2.83 4.26,4.826 0.593,0.936 1.419,1.718 1.92,2.705 0.502,0.986 0.584,2.33 -0.228,3.082 C 0.97,-1.865 0.583,-1.691 0.354,-1.363 0.082,-0.975 0.095,-0.464 0,0"
             style="fill:#000000;fill-opacity:1;fill-rule:nonzero;stroke:none"
             id="path110" /></g><g
           id="g112"
           transform="translate(874.0917,965.7806)"><path
             d="m 0,0 c -0.294,0.13 -0.508,0.41 -0.814,0.509 -0.678,0.219 -1.274,-0.562 -1.387,-1.266 -0.245,-1.522 -0.674,-1.788 -1.351,-3.05 -0.414,-0.769 -0.889,-1.883 -0.511,-2.778 0.9,-2.133 3.294,-0.401 4.526,0.594 0.559,0.452 1.106,0.967 1.37,1.636 0.308,0.781 0.191,1.659 0.05,2.488 -0.11,0.652 -0.312,1.406 -0.928,1.65 C 0.651,-0.097 0.3,-0.132 0,0"
             style="fill:#000000;fill-opacity:1;fill-rule:nonzero;stroke:none"
             id="path114" /></g><g
           id="g116"
           transform="translate(932.6812,872.2589)"><path
             d="M 0,0 C 0.909,-0.199 1.61,0.615 2.483,0.713 3.638,0.842 4.333,0.28 5.561,0.765 6.536,1.15 7.578,1.59 8.127,2.483 8.597,3.248 8.611,4.207 8.51,5.099 8.303,6.93 7.473,8.922 5.741,9.55 5.351,9.691 4.93,9.756 4.568,9.958 3.509,10.546 3.276,12.083 2.217,12.67 1.672,12.973 0.973,12.979 0.503,13.388 0.278,13.584 0.121,13.86 -0.139,14.007 -0.52,14.222 -0.997,14.094 -1.407,13.942 -2.463,13.551 -3.492,13.018 -4.26,12.196 -5.027,11.373 -5.504,10.226 -5.321,9.115 -5.076,7.628 -3.777,6.572 -3.037,5.259 -2.234,3.836 -1.947,0.428 0,0"
             style="fill:#000000;fill-opacity:1;fill-rule:nonzero;stroke:none"
             id="path118" /></g><g
           id="g120"
           transform="translate(1035.3459,728.3378)"><path
             d="m 0,0 c -4.526,-3.017 -33.526,-8.214 -33.526,-8.214 0,0 -5.867,-1.174 -8.214,-3.017 -2.347,-1.844 -7.543,-5.7 -8.046,-5.867 -0.503,-0.168 -99.757,-1.809 -99.757,-1.809 h -0.008 c -3.882,2.526 -8.794,0.712 -15.648,3.736 -8.549,3.772 -13.83,1.257 -13.83,1.257 0,0 -10.058,3.018 -14.081,6.287 -4.023,3.268 5.532,2.765 8.298,3.017 2.766,0.251 15.087,-2.766 19.11,-4.275 4.023,-1.508 17.349,2.012 21.624,3.018 4.275,1.005 5.029,0.503 9.052,-1.258 4.023,-1.76 18.858,-1.76 18.858,-1.76 0,0 4.275,0.503 6.287,1.509 2.011,1.006 1.508,1.006 1.856,3.017 0.347,2.012 0.155,1.509 1.161,2.263 1.006,0.755 10.812,2.766 12.76,4.023 1.947,1.258 11.63,-0.502 16.407,-4.023 4.778,-3.52 21.373,0 21.373,0 0,0 8.298,3.269 12.07,6.035 3.771,2.766 13.399,3.017 13.399,3.017 0,0 11.242,1.258 13.499,2.693 L 5.48,9.862 C 14.57,6.389 3.936,2.624 0,0 m 916.516,22.546 c -1.257,0.503 -20.618,-0.503 -24.893,0 -4.274,0.503 -1.257,0.251 1.509,2.514 2.766,2.263 6.538,1.509 6.538,1.509 h 2.766 l 1.005,5.28 c 1.006,5.281 0,0 0,2.766 0,2.766 -1.005,2.012 -3.268,4.526 -2.263,2.515 -1.761,1.006 -1.761,3.521 0,2.514 1.761,0.502 3.772,2.765 2.012,2.263 1.006,1.761 1.76,4.275 0.755,2.514 -0.251,1.257 -2.011,4.526 -1.76,3.269 0,0 0.251,2.514 0.252,2.515 0,0 -1.006,2.766 -1.005,2.766 -1.76,0.503 -4.526,3.269 -2.766,2.766 0.252,1.257 2.263,1.76 2.012,0.503 2.515,0 6.035,-1.257 3.52,-1.257 0,0 2.263,1.76 2.263,1.76 1.76,1.257 2.515,3.52 0.754,2.263 0,0 -2.012,2.515 -2.012,2.514 -1.257,2.011 -3.772,1.648 -2.514,-0.363 -5.029,-0.894 -6.789,-0.894 -1.76,0 -7.543,2.012 -13.075,0 -5.532,-2.011 -13.075,-1.76 -13.075,-1.76 L 117.446,61.216 c -1.241,0.983 -2.589,1.777 -4.136,2.067 -1.088,0.204 -2.223,0.153 -3.354,0.077 -1.194,0.113 -2.888,0.248 -6.109,0.926 -0.07,0.014 -0.122,0.026 -0.19,0.04 -0.278,0.173 -0.56,0.338 -0.869,0.443 -0.519,0.177 -1.059,0.171 -1.603,0.09 -5.286,1.159 -3.782,0.94 -7.878,0.413 -0.036,0.039 -0.072,0.079 -0.109,0.116 -1.213,1.216 -3.035,1.648 -4.751,1.572 -0.856,-0.039 -1.699,-0.188 -2.534,-0.384 -0.49,0.51 -1.36,1.1 -3.188,1.733 -5.702,1.974 -6.245,0.121 -11.462,-2.22 -1.319,0.547 -2.666,1.069 -3.968,0.607 -0.597,-0.212 -1.106,-0.616 -1.681,-0.884 -0.996,-0.465 -2.103,-0.485 -3.218,-0.451 -0.447,0.413 -1.136,0.795 -2.552,0.936 -5.029,0.503 -4.275,-1.257 -8.549,-4.673 -0.459,-0.367 -1.03,-0.78 -1.631,-1.205 L -969.571,48.445 c 0,0 -1.509,-1.006 -2.766,-1.006 -1.258,0 -6.538,1.76 -9.304,1.006 -2.766,-0.755 -3.017,-2.263 -3.017,-4.778 0,-2.514 3.772,0 6.286,0.755 2.514,0.754 4.023,0 5.532,-0.503 1.508,-0.503 2.011,1.508 3.269,2.514 1.257,1.006 1.76,-0.503 2.765,-2.263 1.006,-1.76 6.538,-1.006 10.058,-0.754 3.52,0.251 3.269,0.754 3.269,-1.006 0,-1.76 -2.263,-2.514 -3.52,-5.562 -1.257,-3.049 0,-1.227 0.754,-6.004 0.754,-4.778 5.532,-5.784 8.046,-7.292 2.515,-1.509 3.018,-1.509 2.766,-3.269 -0.251,-1.76 -0.251,-2.766 0,-5.783 0.252,-3.018 1.509,-5.029 1.509,-5.029 0,0 -0.252,-2.012 0.251,-3.772 0.503,-1.76 -1.005,-1.76 -4.526,-2.011 -3.52,-0.252 -12.823,0.754 -14.835,0.754 -2.011,0 -10.812,0.503 -11.818,-0.252 -1.006,-0.754 -2.011,-0.754 -5.28,-0.754 -3.269,0 -6.286,0.503 -8.046,1.257 -1.761,0.755 -5.281,-2.011 -3.018,-1.76 2.263,0.252 8.172,-2.263 8.172,-2.263 l 651.014,6.054 c -0.07,-0.536 -0.126,-1.055 -0.149,-1.528 -0.251,-5.28 0.252,-3.771 2.263,-6.789 2.012,-3.017 7.544,-7.04 10.058,-9.806 2.515,-2.766 1.509,-3.52 1.509,-6.789 0,-0.504 -0.046,-0.915 -0.11,-1.293 -53.343,-0.415 -557.843,-4.34 -562.289,-4.658 -4.693,-0.335 -8.884,0.503 -11.901,1.173 -3.018,0.671 -13.243,1.174 -16.763,0.755 -3.521,-0.419 -6.37,0.754 -10.058,2.263 -3.688,1.508 0,0 -1.676,1.341 -1.677,1.341 -9.22,1.341 -13.075,0 -3.856,-1.341 -1.509,-0.335 -4.526,-1.009 -3.018,-0.673 -3.688,0.003 -6.706,-1.002 -3.017,-1.006 -8.381,0.335 -9.89,0.838 -1.508,0.502 -3.185,-0.168 -4.191,-1.677 -1.005,-1.509 -5.196,-2.682 -7.04,-2.825 -1.844,-0.143 -7.041,-0.527 -7.711,0 -0.671,0.528 -2.85,-1.365 -5.197,-1.27 -2.347,0.097 -6.202,1.078 -8.549,1.246 -2.347,0.167 -4.422,-0.433 -3.92,-2.515 0.605,-2.514 5.764,-0.671 9.117,-1.006 3.352,-0.335 1.173,-0.167 3.352,0 2.179,0.168 2.179,0 4.359,-0.335 2.179,-0.335 3.52,-0.335 6.705,0.168 3.185,0.502 3.855,0.167 5.699,0.335 1.844,0.167 9.891,0.167 11.567,0.335 1.676,0.168 5.029,0.503 7.04,0.503 2.012,0 6.203,-1.676 6.705,-2.011 0.503,-0.336 6.706,1.005 8.214,0.67 1.509,-0.335 0.168,-0.838 -1.173,-0.838 -1.341,0 -6.203,-1.006 -7.208,-1.173 -1.006,-0.168 -13.578,0 -15.422,-0.671 -1.844,-0.671 -1.006,-1.174 -1.509,-2.179 -0.503,-1.006 -0.168,-1.676 -0.168,-3.353 0,-1.676 3.353,-2.179 5.365,-3.185 2.011,-1.006 2.849,-2.347 4.358,-2.514 1.509,-0.168 3.855,-0.168 4.023,-1.174 0.168,-1.005 -1.173,-0.335 -2.682,-0.67 -1.509,-0.335 -18.271,0.503 -19.948,0.838 -1.676,0.335 -2.682,-0.503 -4.861,-1.341 -2.179,-0.838 -4.861,0 -7.208,0 -2.347,0 -4.191,0.671 -5.7,0.335 -1.508,-0.335 -1.173,-2.514 -0.503,-2.682 0.671,-0.168 2.18,-0.67 4.024,-0.838 1.844,-0.168 3.52,-0.335 5.867,0 2.347,0.335 4.358,1.173 5.867,1.508 1.508,0.336 4.023,-0.838 5.867,-1.005 1.844,-0.168 17.601,-0.671 17.601,-0.671 0,0 3.856,0.838 4.861,2.012 1.006,1.173 0.168,1.676 0.503,2.85 0.335,1.173 1.341,-0.671 2.347,-1.341 1.006,-0.671 1.676,-2.515 2.179,-2.515 0.503,0 33.191,0.168 35.873,0.335 2.682,0.168 1.676,0.671 2.682,0.671 1.006,0 3.352,-1.174 11.399,-1.174 8.046,0 354.37,1.844 357.387,1.341 3.017,-0.503 2.682,0.671 4.693,0.503 2.012,-0.167 5.197,-1.508 5.197,-1.508 0,0 4.861,0.167 7.04,0.167 2.18,0 7.376,0.671 8.55,0.671 1.173,0 6.872,-1.509 8.381,-1.844 1.509,-0.335 3.688,0 5.699,0.838 2.012,0.838 4.694,1.341 6.035,1.676 1.341,0.336 4.526,0 6.538,-0.503 2.011,-0.503 8.717,-0.167 10.393,0.168 1.676,0.335 2.011,-0.671 4.023,-1.006 2.011,-0.335 2.011,0 4.023,0.671 2.011,0.67 5.364,-0.838 6.37,-0.671 1.006,0.168 6.035,1.844 11.734,1.677 5.699,-0.168 135.445,0.167 139.636,0.503 4.19,0.335 2.347,-0.671 4.023,-1.677 1.676,-1.006 2.682,-0.838 5.532,-1.508 2.849,-0.671 5.867,-2.347 7.208,-2.683 1.341,-0.335 3.352,0.671 5.867,0.671 2.514,0 2.682,-1.509 4.19,-1.509 1.509,0 6.873,1.006 9.22,0.838 2.347,-0.167 1.677,-0.167 4.023,-1.173 2.347,-1.006 3.185,-1.173 4.694,-1.173 1.509,0 4.526,1.173 7.543,1.173 3.018,0 8.382,-1.676 9.388,-1.844 1.005,-0.167 6.369,0.671 10.56,-0.67 4.191,-1.342 7.208,-6.873 7.208,-6.873 0,0 -628.612,-2.515 -629.953,-2.515 -1.341,0 -3.688,0.503 -5.196,-0.167 -1.509,-0.671 -6.371,-0.336 -7.711,0.167 -1.341,0.503 -15.925,0 -18.775,0 -2.85,0 -3.855,-0.167 -5.699,-0.503 -1.844,-0.335 -2.18,0 -4.023,0.503 -1.845,0.503 -2.012,0 -5.7,0.503 -3.688,0.503 -3.688,-1.006 -5.532,-1.173 -1.843,-0.168 -4.861,0.335 -6.872,0.503 -2.012,0.167 -15.423,-0.336 -17.769,0.503 -2.347,0.838 -4.526,-0.336 -8.382,-1.342 -3.855,-1.005 -4.693,-0.335 -7.543,0.839 -2.85,1.173 -11.399,0.503 -13.075,0.503 -1.677,0 -2.179,-0.671 -4.023,-1.342 -1.844,-0.67 -5.029,0.503 -7.544,0.503 -2.514,0 -14.416,0.336 -17.098,0 -2.682,-0.335 -3.856,0.168 -6.537,-2.011 -2.683,-2.179 0.335,-0.838 2.346,-1.006 2.012,-0.167 4.191,-0.503 6.035,-0.838 1.844,-0.335 13.075,1.341 14.249,1.341 1.173,0 4.023,-0.167 4.861,-0.335 0.838,-0.168 2.514,-0.503 3.688,-0.335 1.173,0.167 3.352,-0.503 4.861,-0.671 1.509,-0.168 1.173,1.006 2.849,1.174 1.677,0.167 1.677,-0.671 3.688,-0.503 2.012,0.167 6.873,1.341 8.214,1.341 1.341,0 1.341,-1.174 4.191,-1.844 2.85,-0.671 2.682,1.341 3.856,1.508 1.173,0.168 2.179,-0.335 5.029,-0.67 2.849,-0.335 2.346,0.503 4.023,0.67 1.676,0.168 2.346,0.336 5.867,0.168 3.52,-0.168 2.682,-0.503 5.029,-0.335 2.346,0.167 11.734,-0.838 12.74,-0.838 1.005,0 2.849,0.167 4.526,0.838 1.676,0.67 3.687,0.67 4.861,0.335 1.173,-0.335 5.699,-0.503 18.607,-0.503 12.907,0 274.242,0.838 275.08,0.838 0.838,0 3.353,0.168 5.7,-0.167 2.346,-0.336 3.855,-1.844 7.375,-2.347 3.521,-0.503 2.683,0.335 5.197,0 2.514,-0.336 4.191,-0.168 5.867,-1.006 1.676,-0.838 7.04,-0.671 10.896,-0.335 3.855,0.335 8.214,0.838 9.722,0 1.509,-0.838 0,-1.006 1.844,-0.838 1.844,0.167 2.012,0 3.688,-0.838 1.677,-0.839 1.844,1.173 4.023,2.011 2.18,0.838 2.347,0.167 5.197,-1.173 2.85,-1.341 2.179,0.67 4.023,0.167 1.844,-0.503 3.688,-0.335 5.532,0.335 1.844,0.671 3.52,0.168 5.532,-0.167 2.011,-0.335 5.029,-1.676 7.375,-0.503 2.347,1.173 5.867,0 6.873,-0.503 1.006,-0.503 2.85,-2.012 5.029,-2.515 2.179,-0.502 5.364,-0.67 6.873,0.336 1.509,1.006 4.19,3.017 4.19,5.196 0,2.18 0.503,2.012 1.845,2.515 1.341,0.503 1.005,-1.676 1.508,-3.353 0.503,-1.676 1.006,-1.006 4.191,-2.346 3.185,-1.342 6.202,-0.503 7.711,0 1.509,0.502 3.52,0.838 6.37,0.67 2.85,-0.168 0.335,-1.341 -0.335,-3.018 -0.671,-1.676 -0.838,-2.011 -0.168,-3.352 0.671,-1.341 4.358,0 7.376,0.335 3.017,0.336 1.676,0.839 3.352,1.677 1.677,0.838 2.347,0.67 3.856,-0.336 1.508,-1.005 5.699,-1.844 6.202,-4.023 0.503,-2.179 1.509,-2.011 4.191,-2.347 2.682,-0.335 3.52,1.844 6.035,1.342 2.514,-0.503 0,0 -0.839,-2.18 -0.838,-2.179 -2.179,-1.508 -4.023,-2.346 -1.844,-0.839 -0.335,-2.515 0,-5.029 0.336,-2.515 1.341,-2.012 4.023,-3.353 2.682,-1.341 6.706,-0.67 9.388,0.335 2.682,1.006 5.531,0.503 11.231,0.503 5.699,0 8.884,3.52 10.057,5.029 1.174,1.509 0.336,2.179 1.509,3.855 1.174,1.677 2.012,2.515 4.359,3.856 2.347,1.341 4.023,2.85 5.699,5.364 1.676,2.515 2.011,0.838 4.861,1.341 2.85,0.503 1.174,0.503 5.029,1.341 3.856,0.838 14.416,1.341 16.093,1.341 1.676,0 2.514,-2.514 4.526,-3.353 2.011,-0.838 4.023,0.671 6.37,0.503 2.346,-0.167 5.364,-7.543 8.214,-9.722 2.849,-2.179 12.069,-4.359 13.578,-4.861 1.508,-0.503 6.705,-1.509 14.583,-3.521 7.879,-2.011 17.434,-3.184 19.278,-1.843 1.844,1.34 4.358,2.346 5.867,4.693 1.509,2.347 13.578,12.908 16.763,14.751 3.185,1.845 6.873,0.671 7.376,1.677 0.503,1.006 3.184,2.347 6.202,2.682 3.017,0.335 6.873,-7.376 8.884,-7.711 2.012,-0.335 2.012,3.855 4.359,4.861 2.346,1.006 4.191,-2.179 5.699,-3.017 1.509,-0.838 3.018,0 4.191,1.341 1.173,1.341 6.202,4.023 8.381,4.861 2.179,0.838 10.561,0.838 12.405,0.671 1.844,-0.168 11.063,1.341 12.069,1.006 1.006,-0.336 7.544,-0.168 10.058,-1.174 2.514,-1.006 12.907,-2.347 15.59,-2.682 2.682,-0.335 3.688,-0.503 6.034,-7.041 2.347,-6.537 9.723,-9.554 10.896,-11.566 1.174,-2.012 -0.67,-3.017 -1.006,-5.029 -0.335,-2.011 -0.335,-3.017 0.336,-8.716 0.67,-5.7 3.52,-4.526 6.37,-3.688 2.849,0.838 1.843,1.173 2.346,4.693 0.503,3.521 2.347,1.006 3.688,3.353 1.341,2.347 3.688,3.52 6.538,3.185 2.849,-0.336 4.023,-0.168 5.867,-0.336 1.844,-0.167 3.856,0.168 6.537,0.671 2.683,0.503 6.035,-1.341 7.712,-3.017 1.676,-1.677 5.866,-9.555 8.716,-10.561 2.85,-1.006 3.353,5.867 3.018,10.896 -0.336,5.029 -1.006,3.52 0.335,7.04 1.341,3.521 0.838,4.023 0.838,10.058 0,6.035 0,8.885 1.509,11.231 1.508,2.347 6.537,-0.335 8.046,1.174 1.508,1.509 3.52,2.179 4.694,1.844 1.173,-0.335 3.017,-2.682 5.531,1.006 2.515,3.688 5.029,3.688 5.029,3.688 0,0 77.445,0 80.127,0.167 2.682,0.168 8.885,-4.023 11.064,-5.029 2.179,-1.006 4.358,-1.844 8.884,-2.85 4.526,-1.005 3.52,0.168 7.376,-0.67 3.856,-0.838 12.572,-1.844 18.104,-1.509 5.532,0.336 8.214,2.682 12.069,3.017 3.856,0.336 5.029,-1.508 7.041,-3.855 2.011,-2.347 6.37,-2.849 10.896,-3.185 4.526,-0.335 8.549,-1.509 11.902,-4.526 3.352,-3.017 16.092,-10.561 19.277,-12.069 3.185,-1.509 3.688,0.503 7.041,3.185 3.352,2.682 3.687,0.67 7.04,-0.335 3.352,-1.006 8.549,0.335 9.555,1.676 1.006,1.341 1.509,1.844 3.185,3.52 1.676,1.676 7.711,0 9.89,1.006 2.179,1.005 1.676,0.838 3.185,4.023 1.508,3.185 1.844,1.006 5.364,2.514 3.52,1.509 1.844,1.006 2.85,4.191 1.005,3.185 3.688,0.168 4.191,1.341 0.502,1.174 2.011,1.844 3.184,4.694 1.174,2.849 3.185,0.838 6.203,1.341 3.017,0.503 4.526,-0.335 5.867,-1.844 1.341,-1.509 -0.503,-4.358 0.67,-4.694 1.174,-0.335 11.902,0.839 14.919,1.174 3.018,0.335 4.359,-3.353 5.365,-5.7 1.005,-2.347 -0.168,-2.682 2.179,-5.532 2.347,-2.849 9.722,2.347 12.237,1.677 2.514,-0.671 0.67,-3.688 2.346,-5.364 1.677,-1.677 2.347,0 4.694,2.179 2.347,2.179 7.711,3.017 10.561,2.85 2.849,-0.168 1.341,-2.347 1.341,-4.526 0,-2.18 2.682,-2.347 4.358,-1.677 1.676,0.671 6.202,2.85 8.382,4.526 2.179,1.677 5.532,1.677 6.872,2.012 1.342,0.335 6.538,-2.347 7.376,-3.52 0.838,-1.174 0.503,-1.006 1.174,-4.694 0.67,-3.688 1.173,-2.347 2.179,-5.364 1.006,-3.018 0.335,-2.85 0.838,-7.041 0.503,-4.191 3.017,-2.011 5.197,-1.173 2.179,0.838 -0.168,2.011 0.335,4.358 0.503,2.347 -0.335,2.682 0,5.7 0.335,3.017 0.67,3.185 1.173,5.531 0.503,2.347 1.341,3.856 2.515,3.521 1.173,-0.336 10.56,0.335 10.728,-0.503 0.168,-0.838 3.353,-4.191 5.364,-4.023 2.012,0.167 4.023,3.017 5.197,-23.469 1.173,-26.485 32.185,-65.878 17.433,-39.896 -14.751,25.983 -16.427,65.376 -14.919,68.058 1.509,2.683 6.873,-5.867 7.544,-3.017 0.67,2.85 9.89,6.202 13.913,6.035 4.023,-0.168 19.948,-11.399 20.618,-11.567 0.671,-0.168 6.706,-2.514 7.376,-0.335 0.671,2.179 3.856,5.867 6.202,10.393 2.347,4.526 24.307,2.85 24.307,2.85 0,0 -2.347,-17.769 10.225,-28.162 12.572,-10.393 30.676,-10.561 30.676,-10.561 0,0 -0.838,-6.538 7.544,-18.607 8.381,-12.069 36.71,-17.936 47.774,-0.335 11.064,17.601 7.04,42.243 7.04,42.243 0,0 23.804,5.532 39.226,-13.075 15.422,-18.607 18.942,-36.544 22.295,-50.96 3.352,-14.416 6.035,-44.925 6.537,-55.318 0.503,-10.393 0.168,-69.399 1.844,-87.67 1.677,-18.272 11.567,-33.191 26.653,-33.359 15.087,-0.167 23.636,13.243 25.815,21.96 2.18,8.717 1.174,39.393 0.838,54.983 -0.335,15.589 -3.52,132.762 -3.52,132.762 h 11.902 c 0,0 1.173,-46.936 1.509,-63.867 0.335,-16.93 7.878,-26.988 17.601,-27.826 9.722,-0.838 17.769,3.856 22.462,13.243 4.694,9.387 2.515,29.167 2.347,33.693 -0.167,4.526 -0.838,30.341 -1.509,39.393 -0.67,9.052 -1.173,20.954 -0.167,29.168 1.006,8.214 0.167,18.942 0.167,18.942 29.001,7.543 39.561,27.324 39.561,27.324 h 208.532 c 1.173,0 5.364,0.167 6.705,0.335 1.341,0.168 2.179,0.671 3.52,1.006 1.341,0.335 4.023,-0.168 4.694,0.503 0.67,0.67 3.352,1.957 3.352,1.957 0,0 -36.208,0.725 -44.757,1.731 -8.549,1.005 -6.537,2.346 -8.884,1.005 -2.347,-1.341 -7.376,-1.173 -9.387,-1.341 -2.012,-0.167 1.843,1.174 4.19,2.179 2.347,1.006 0,0 0.168,1.509 0.168,1.509 0,0 0.838,1.341 0.838,1.341 -1.006,1.341 -2.514,1.006 -1.509,-0.335 -7.041,-0.838 -8.382,-0.838 -1.341,0 -37.549,0.335 -42.075,0.335 -4.526,0 -1.509,-0.503 -2.682,-1.676 -1.173,-1.174 -4.191,-0.168 -5.867,-1.509 -1.677,-1.341 -2.514,-2.514 -2.514,-2.514 0,0 -24.474,-1.174 -26.989,0.335 -2.514,1.509 1.006,0.671 3.52,1.341 2.515,0.67 2.012,0.67 3.353,3.688 1.341,3.017 -0.503,0.67 -2.347,3.017 -1.844,2.347 -8.046,2.85 -12.405,3.185 -4.358,0.335 -6.537,-1.341 -8.716,-3.856 -2.179,-2.514 -2.515,-2.514 -2.682,-4.358 -0.168,-1.844 1.34,-2.514 1.005,-3.855 -0.335,-1.341 -5.364,-0.503 -8.884,0 -3.52,0.503 -3.353,2.849 -6.873,3.017 -3.52,0.168 -4.526,-0.168 -7.04,0.168 -2.515,0.335 -4.862,1.341 -6.37,1.173 -1.509,-0.168 -6.035,1.677 -9.89,2.012 -3.856,0.335 -9.723,-0.168 -11.734,-0.838 -2.012,-0.671 -2.347,-0.336 -3.353,0.67 -1.006,1.006 0.838,1.676 1.341,4.861 0.503,3.185 1.341,4.085 1.341,4.085 0,0 213.058,0.944 216.578,0.442 3.52,-0.503 3.353,-0.839 5.364,0.502 2.012,1.341 1.006,0.838 1.509,1.844 0.503,1.006 2.849,0.335 5.029,0.503 2.179,0.168 -2.012,1.677 -4.072,2.347 -2.06,0.67 -3.975,0.67 -6.154,0.335 -2.179,-0.335 -7.208,1.006 -9.387,1.844 -2.18,0.838 -1.174,1.006 0,3.017 1.173,2.012 0,0 2.682,-0.167 2.682,-0.168 0,0 1.006,0.838 1.006,0.838 2.179,1.341 4.023,4.861 1.844,3.52 0,3.688 -1.006,4.861 -1.006,1.174 -2.347,1.677 -2.011,2.683 0.335,1.005 1.173,0.167 2.011,1.508 0.838,1.341 0.838,0.838 3.52,0.671 2.682,-0.168 2.85,1.006 4.694,1.844 1.844,0.838 -0.838,0.503 -2.515,1.173 -1.676,0.67 -1.843,2.012 -6.034,2.179 -4.191,0.168 -9.387,0.839 -12.74,1.509 -3.353,0.67 -9.388,-0.838 -14.249,-2.012 -4.861,-1.173 -4.358,0 -7.878,-0.838 -3.52,-0.838 -1.509,0.168 -4.862,0.503 -3.352,0.335 -3.52,0.503 -9.052,-1.341 -5.531,-1.844 -11.063,-0.335 -15.421,-0.168 -4.359,0.168 -11.399,0.168 -15.255,0.503 -3.855,0.335 -5.699,-1.676 -9.387,-1.843 -3.688,-0.168 -3.52,1.508 -7.04,2.178 -3.521,0.671 -7.041,0.503 -10.729,1.006 -3.688,0.503 -2.179,1.844 -4.358,1.844 -2.18,0 -3.353,-0.167 -6.203,-0.167 -2.849,0 -3.352,-1.006 -3.352,-1.006 0,0 -2.347,0.838 -5.532,2.179 -3.185,1.341 -2.514,-0.503 -5.364,0.168 -2.85,0.67 -4.359,3.017 -9.052,2.347 -4.694,-0.671 -2.85,-0.839 -3.856,-0.839 -1.006,0 -8.716,2.012 -11.566,1.677 -2.85,-0.335 -3.185,-0.168 -5.364,1.005 -2.18,1.174 -3.185,0 -5.532,-0.67 -2.347,-0.67 -3.017,-0.503 -6.202,-0.168 -3.185,0.336 -1.006,0 -5.364,-1.844 -4.359,-1.844 -2.683,0.671 -4.862,1.844 -2.179,1.174 -1.508,-0.335 -3.352,-1.844 -1.844,-1.508 -9.89,0.503 -13.578,0 -3.688,-0.503 -4.694,0.839 -8.214,2.012 -3.52,1.173 -3.185,0 -6.705,0.503 -3.521,0.503 -15.59,5.531 -33.023,5.867 -17.434,0.335 -41.74,-5.364 -41.74,-5.364 l -28.498,-4.694 c 0,0 -4.526,-0.503 -7.71,0 -3.185,0.503 -4.191,-0.67 -8.885,-1.006 -4.693,-0.335 -6.035,1.174 -10.058,2.431 -4.023,1.257 -2.849,-0.587 -5.699,-1.76 -2.85,-1.173 -7.711,0.335 -7.711,0.335 l -11.566,0.503 c 0,0 -0.838,0.838 -3.521,3.52 -2.682,2.682 -5.699,1.341 -10.057,1.173 -4.359,-0.167 -5.7,-1.005 -9.388,-0.502 -3.687,0.502 -4.023,3.185 -8.884,3.185 -4.861,0 -7.879,-0.335 -12.573,-1.844 -4.693,-1.509 -11.733,-2.012 -15.756,-2.347 -4.024,-0.335 -7.879,-1.844 -12.405,-3.018 -4.526,-1.173 -20.619,-1.34 -27.491,-2.011 -6.873,-0.67 -8.55,0.671 -16.596,-1.006 -8.046,-1.676 -2.514,-0.503 -7.04,-0.167 -4.526,0.335 -4.861,0.167 -9.22,0.67 -4.358,0.503 -9.722,2.514 -11.734,0.671 -2.011,-1.844 -5.867,-2.683 -10.225,-3.856 -4.359,-1.173 -4.694,-0.838 -7.712,-0.335 -3.017,0.503 -2.514,0 -5.196,0 -2.682,0 -10.058,1.006 -11.734,-0.335 -1.676,-1.341 -3.688,-1.677 -6.37,-1.006 -2.682,0.671 -3.185,1.006 -6.37,1.676 -3.185,0.671 -5.029,1.509 -7.543,2.347 -2.515,0.838 -1.676,-1.174 -4.694,-1.509 -3.017,-0.335 -1.676,1.509 -4.694,4.023 -3.017,2.515 -4.19,-0.67 -7.208,-0.167 -3.017,0.503 -1.341,0 -2.346,-1.509 -1.006,-1.509 -0.336,-1.173 -2.347,-1.006 -2.012,0.168 -2.682,0 -4.359,-0.838 -1.676,-0.838 -6.37,1.509 -9.052,3.018 -2.682,1.508 -3.52,-0.168 -6.537,0 -3.018,0.167 -4.359,0.335 -6.37,-0.168 -2.012,-0.503 -6.203,-0.503 -11.064,2.514 -4.861,3.018 -14.584,4.359 -19.277,3.688 -4.694,-0.67 -17.937,-1.676 -23.301,-3.688 -5.364,-2.011 -12.907,-0.503 -17.768,0 -4.862,0.503 -4.526,3.353 -7.209,4.526 -2.682,1.174 -12.069,-3.687 -12.069,-3.687 0,0 -8.214,0.503 -10.393,1.843 -2.179,1.341 -5.197,3.688 -7.208,4.862 -0.989,0.576 -1.858,1.763 -2.901,3.196 l 232.527,2.162 c 0.984,-1.013 2.015,-2.038 3.334,-2.533 1.232,-0.462 2.585,-0.419 3.898,-0.503 4.301,-0.277 8.376,-1.969 12.612,-2.761 9.281,-1.736 18.759,0.907 27.83,3.526 3.239,0.935 6.479,1.869 9.719,2.804 l 420.966,3.915 c 0,0 2.011,0.754 3.017,2.223 1.006,1.468 25.899,0.04 25.899,0.04 0,0 4.275,-0.252 5.783,0.503 1.509,0.754 0.252,1.257 -1.006,1.76"
             style="fill:#000000;fill-opacity:1;fill-rule:nonzero;stroke:none"
             id="path122" /></g><g
           id="g124"
           transform="translate(958.7686,1393.2623)"><path
             d="m 0,0 c 0.662,-0.237 1.353,-0.494 1.82,-1.02 1.205,-1.353 0.521,-3.375 0.825,-4.978 0.387,-2.035 1.828,-4.015 2.802,-5.82 1.595,-2.958 3.189,-5.915 4.784,-8.873 0.36,-0.667 0.741,-1.359 1.36,-1.798 0.62,-0.438 1.551,-0.536 2.099,-0.011 C 9.592,-15.364 7.428,-7.129 7.489,1.099 7.495,2.003 7.508,2.977 6.988,3.716 6.583,4.29 5.922,4.62 5.272,4.886 2.554,5.997 -0.404,6.361 -3.326,6.647 -4.637,6.775 -6.012,6.88 -7.224,6.363 -8.435,5.846 -9.396,4.493 -9.015,3.232 -6.01,2.155 -3.005,1.077 0,0"
             style="fill:#000000;fill-opacity:1;fill-rule:nonzero;stroke:none"
             id="path126" /></g><g
           id="g128"
           transform="translate(981.2772,1355.5881)"><path
             d="m 0,0 c 1,-0.839 1.33,-2.309 2.393,-3.066 0.823,-0.586 1.904,-0.616 2.915,-0.624 0.264,-0.002 0.551,0.004 0.753,0.172 0.195,0.162 0.258,0.432 0.276,0.684 C 6.417,-1.721 5.846,-0.67 5.229,0.26 4.03,2.067 2.131,5.082 -0.065,5.793 -3.129,6.783 -5.529,3.608 -2.696,1.459 -1.879,0.839 -0.785,0.659 0,0"
             style="fill:#000000;fill-opacity:1;fill-rule:nonzero;stroke:none"
             id="path130" /></g><g
           id="g132"
           transform="translate(1109.8488,637.1357)"><path
             d="M 0,0 C -1.365,1.328 -2.072,3.524 -3.911,4.022 -5.285,4.393 -6.87,3.414 -7.154,2.02 -7.212,1.733 -7.228,1.423 -7.396,1.184 -7.819,0.585 -8.746,0.883 -9.412,1.192 c -1.396,0.649 -3.078,1.261 -4.62,1.262 -1.875,-5.431 7.731,-5.399 10.113,-7.246 0.611,-0.474 1.124,-1.076 1.782,-1.483 1.708,-1.057 3.913,-0.568 5.844,-0.01 0.539,0.155 1.124,0.348 1.422,0.823 0.377,0.598 0.135,1.404 -0.28,1.977 C 3.673,-1.863 1.436,-1.397 0,0"
             style="fill:#000000;fill-opacity:1;fill-rule:nonzero;stroke:none"
             id="path134" /></g><g
           id="g136"
           transform="translate(1111.8474,621.512)"><path
             d="M 0,0 C -0.226,0.098 -0.463,0.197 -0.708,0.18 -0.976,0.162 -1.215,0.009 -1.437,-0.143 -3.739,-1.726 -4.079,-4.604 -1.418,-6.223 0.973,-7.676 3.646,-4.476 2.654,-2.124 2.202,-1.053 1.065,-0.464 0,0"
             style="fill:#000000;fill-opacity:1;fill-rule:nonzero;stroke:none"
             id="path138" /></g><g
           id="g140"
           transform="translate(1142.8102,629.3945)"><path
             d="M 0,0 C -0.645,0.106 -1.466,0.193 -1.664,0.816 -1.775,1.162 -1.625,1.539 -1.669,1.9 -1.792,2.897 -3.24,3.109 -4.111,2.609 -4.982,2.109 -5.583,1.213 -6.48,0.762 -7.058,0.47 -7.716,0.387 -8.358,0.308 c -2.086,-0.256 -4.172,-0.513 -6.258,-0.77 -1.512,-0.186 -3.092,-0.397 -4.342,-1.267 -2.453,-1.706 -2.678,-5.675 -0.452,-7.727 1.07,-0.986 1.946,-0.59 3.271,-0.724 1.938,-0.198 2.106,-0.965 2.651,-2.686 0.603,-1.9 2.648,-3.228 4.628,-3.004 0.359,0.041 0.733,0.138 0.989,0.393 0.848,0.847 -0.28,2.418 0.313,3.46 0.456,0.801 1.634,0.78 2.49,0.442 0.858,-0.339 1.691,-0.896 2.61,-0.819 1.424,0.121 2.254,1.672 2.566,3.068 0.312,1.395 0.43,2.955 1.435,3.972 0.29,0.295 0.643,0.526 0.91,0.842 0.671,0.793 0.663,2.031 0.116,2.915 C 2.022,-0.712 1.026,-0.169 0,0"
             style="fill:#000000;fill-opacity:1;fill-rule:nonzero;stroke:none"
             id="path142" /></g><g
           id="g144"
           transform="translate(1213.428,628.7355)"><path
             d="m 0,0 c -0.28,0.045 -0.587,0.085 -0.832,-0.059 -0.418,-0.247 -0.402,-0.844 -0.376,-1.329 0.187,-3.512 -1.913,-6.695 -2.777,-10.104 -0.913,-3.602 -0.427,-7.392 0.064,-11.075 0.074,-0.552 0.381,-1.279 0.923,-1.148 0.227,0.055 0.385,0.259 0.495,0.465 0.54,1.003 0.35,2.22 0.388,3.36 0.065,1.904 0.805,3.713 1.535,5.474 0.32,0.771 0.64,1.542 0.959,2.314 0.825,1.991 1.651,3.982 2.588,5.922 0.5,1.034 2.258,3.853 1.607,5.039 C 3.986,-0.072 1.065,-0.17 0,0"
             style="fill:#000000;fill-opacity:1;fill-rule:nonzero;stroke:none"
             id="path146" /></g><g
           id="g148"
           transform="translate(1257.8135,627.1926)"><path
             d="m 0,0 c -0.504,-0.018 -1.028,-0.115 -1.425,-0.426 -0.276,-0.217 -0.468,-0.52 -0.682,-0.797 -0.642,-0.828 -1.533,-1.46 -2.526,-1.792 -0.571,-0.191 -1.192,-0.294 -1.669,-0.661 -3.309,-2.539 2.818,-5.064 4.856,-4.816 2.784,0.338 6.493,4.109 4.722,7.009 C 2.62,-0.41 1.256,0.047 0,0"
             style="fill:#000000;fill-opacity:1;fill-rule:nonzero;stroke:none"
             id="path150" /></g><g
           id="g152"
           transform="translate(1284.9321,610.2054)"><path
             d="m 0,0 c -0.358,-0.098 -0.496,-0.523 -0.754,-0.79 -0.356,-0.37 -0.919,-0.417 -1.427,-0.491 -0.808,-0.117 -1.597,-0.356 -2.333,-0.708 -0.566,-0.27 -1.12,-0.625 -1.446,-1.16 -0.326,-0.535 -0.365,-1.285 0.05,-1.755 0.919,-1.043 4.891,-1.687 6.238,-1.128 2.39,0.99 1.978,3.922 0.598,5.556 C 0.689,-0.195 0.355,0.097 0,0"
             style="fill:#000000;fill-opacity:1;fill-rule:nonzero;stroke:none"
             id="path154" /></g><g
           id="g156"
           transform="translate(1367.1879,728.1455)"><path
             d="M 0,0 C 1.539,0.228 3.19,0.672 4.117,1.921 5.043,3.17 4.647,5.4 3.122,5.71 2.764,5.783 2.393,5.743 2.029,5.704 0.203,5.506 -1.623,5.308 -3.449,5.11 -3.787,5.074 -4.134,5.035 -4.442,4.888 -5.665,4.303 -5.563,2.552 -5.269,1.228 -5.086,0.406 -4.634,-0.624 -3.797,-0.53 l -0.36,0.531 C -2.796,-0.299 -1.378,-0.204 0,0"
             style="fill:#000000;fill-opacity:1;fill-rule:nonzero;stroke:none"
             id="path158" /></g><g
           id="g160"
           transform="translate(1394.2751,737.9467)"><path
             d="m 0,0 c -0.457,0.065 -0.922,0.002 -1.375,-0.087 -3.427,-0.671 -7.594,-2.026 -10.861,-3.153 -3.151,-1.087 -3.853,-3.44 -1.182,-6.263 3.251,-3.435 14.444,-2.966 18.296,-1.358 1.339,0.559 2.525,1.681 2.784,3.108 0.277,1.526 -0.551,3.07 -1.68,4.133 -1.129,1.064 -2.54,1.767 -3.847,2.602 C 1.465,-0.59 0.787,-0.113 0,0"
             style="fill:#000000;fill-opacity:1;fill-rule:nonzero;stroke:none"
             id="path162" /></g><g
           id="g164"
           transform="translate(1007.6431,649.6299)"><path
             d="m 0,0 c -0.316,1.405 -1.822,2.143 -3.159,2.681 -2.827,1.137 -5.73,2.26 -8.774,2.409 -2.695,0.132 -5.36,-0.506 -8.034,-0.863 -4.828,-0.644 -9.733,-0.374 -14.573,0.162 -1.848,0.205 -3.699,0.449 -5.488,0.952 -1.12,0.315 -2.212,0.731 -3.344,1.003 -1.46,0.35 -2.967,0.457 -4.467,0.538 -8.699,0.468 -17.442,0.109 -26.074,-1.072 -1.549,-0.211 -3.25,-0.536 -4.215,-1.766 -4.295,-5.476 6.608,-10.365 10.528,-10.35 4.063,0.015 11.014,0.925 10.677,-5.621 7.991,-0.046 16.027,0.909 24.066,0.783 2.784,-0.043 5.62,-0.13 8.292,0.651 5.713,1.668 10.2,7.143 16.152,7.151 1.769,0.002 3.543,-0.5 5.289,-0.213 C -1.378,-3.268 0.389,-1.726 0,0"
             style="fill:#000000;fill-opacity:1;fill-rule:nonzero;stroke:none"
             id="path166" /></g><g
           id="g168"
           transform="translate(1009.0882,637.2532)"><path
             d="m 0,0 c -1.099,-0.258 -2.197,-0.516 -3.297,-0.774 -0.683,-0.16 -1.403,-0.34 -1.91,-0.826 -0.645,-0.619 -0.782,-1.7 -0.312,-2.461 0.47,-0.761 1.498,-1.122 2.34,-0.822 l -0.047,0.386 c 0.26,-1.563 2.476,-2.145 3.799,-1.272 1.323,0.873 1.808,2.607 1.784,4.192 -0.008,0.509 -0.082,1.07 -0.461,1.41 C 1.404,0.275 0.644,0.151 0,0"
             style="fill:#000000;fill-opacity:1;fill-rule:nonzero;stroke:none"
             id="path170" /></g><g
           id="g172"
           transform="translate(1024.5876,655.5914)"><path
             d="M 0,0 C -1.252,-0.122 -2.42,-0.659 -3.56,-1.189 -4.7,-1.718 -6.059,-2.862 -5.418,-3.943 -5.13,-4.43 -4.537,-4.626 -3.994,-4.785 -2.492,-5.223 -0.991,-5.661 0.51,-6.1 l 0.366,-0.958 c 1.142,0.446 2.185,1.238 2.734,2.334 0.55,1.096 0.53,2.509 -0.218,3.48 C 2.625,-0.247 1.252,0.122 0,0"
             style="fill:#000000;fill-opacity:1;fill-rule:nonzero;stroke:none"
             id="path174" /></g><g
           id="g176"
           transform="translate(813.7155,567.1283)"><path
             d="m 0,0 c -1.23,0.23 -2.46,0.46 -3.69,0.69 -1.374,0.257 -2.867,0.498 -4.113,-0.137 -1.236,-0.63 -1.937,-1.983 -3.076,-2.777 -1.043,-0.727 -2.354,-0.921 -3.556,-1.342 -1.2,-0.421 -2.431,-1.241 -2.641,-2.496 -0.112,-0.676 0.094,-1.36 0.299,-2.014 0.321,-1.028 0.642,-2.055 0.963,-3.082 0.084,-0.269 0.177,-0.553 0.391,-0.737 0.276,-0.24 0.678,-0.25 1.045,-0.248 5.068,0.03 9.364,-2.464 13.159,2.321 1.541,1.945 2.254,4.4 2.932,6.787 0.219,0.766 0.413,1.668 -0.077,2.295 C 1.259,-0.257 0.602,-0.113 0,0"
             style="fill:#000000;fill-opacity:1;fill-rule:nonzero;stroke:none"
             id="path178" /></g><g
           id="g180"
           transform="translate(833.3089,593.5433)"><path
             d="m 0,0 c -0.371,0.116 -0.803,0.132 -1.076,0.408 -0.241,0.244 -0.281,0.615 -0.406,0.934 -0.417,1.061 -1.803,1.452 -2.9,1.141 -1.096,-0.311 -1.963,-1.13 -2.783,-1.921 -0.905,-0.873 -1.882,-1.928 -1.77,-3.181 0.132,-1.469 1.656,-2.342 2.993,-2.963 l 1.311,-0.137 c 1.77,0.055 3.7,0.172 5.016,1.357 C 1.701,-3.177 1.69,-0.529 0,0"
             style="fill:#000000;fill-opacity:1;fill-rule:nonzero;stroke:none"
             id="path182" /></g><g
           id="g184"
           transform="translate(833.6746,635.6476)"><path
             d="m 0,0 c -1.011,1.37 0.344,3.603 -0.733,4.921 -0.69,0.845 -1.962,0.796 -3.026,1.036 -2.796,0.631 -4.79,3.624 -7.655,3.677 -1.747,0.032 -3.524,-1.072 -5.157,-0.45 -0.654,0.249 -1.183,0.75 -1.821,1.037 -1.921,0.864 -4.178,-0.472 -5.393,-2.192 -1.214,-1.72 -1.813,-3.816 -3.04,-5.528 -0.612,-0.855 -1.378,-1.61 -1.84,-2.555 -0.409,-0.838 -0.555,-1.779 -0.636,-2.708 -0.173,-1.981 -0.052,-4.067 0.914,-5.805 1.897,-3.413 6.339,-4.412 10.244,-4.418 1.103,-0.002 2.229,0.043 3.282,-0.286 1.793,-0.563 3.07,-2.105 4.594,-3.205 5.589,-4.036 11.001,5.254 12.427,9.621 0.632,1.938 0.831,4.39 -0.726,5.706 C 0.964,-0.752 0.365,-0.495 0,0"
             style="fill:#000000;fill-opacity:1;fill-rule:nonzero;stroke:none"
             id="path186" /></g><g
           id="g188"
           transform="translate(791.1985,647.4784)"><path
             d="m 0,0 c -0.298,0.147 -0.646,0.132 -0.978,0.114 -0.844,-0.046 -1.687,-0.093 -2.53,-0.14 -1.438,-0.079 -2.961,-0.186 -4.137,-1.017 -1.177,-0.83 -1.768,-2.659 -0.816,-3.739 0.527,-0.599 1.354,-0.808 2.083,-1.133 0.729,-0.324 1.473,-0.932 1.441,-1.729 l 2.38,1.789 c -0.39,0.734 0.112,1.645 0.756,2.171 0.644,0.526 1.447,0.871 1.968,1.519 C 0.689,-1.518 0.745,-0.369 0,0"
             style="fill:#000000;fill-opacity:1;fill-rule:nonzero;stroke:none"
             id="path190" /></g><g
           id="g192"
           transform="translate(776.3677,649.1898)"><path
             d="m 0,0 c -0.583,0.488 -1.223,0.999 -1.982,1.036 -0.969,0.048 -1.814,-0.717 -2.249,-1.584 -0.719,-1.435 -0.578,-3.261 0.35,-4.571 0.928,-1.309 2.602,-2.047 4.196,-1.852 l 0.757,1.039 C 0.579,-5.241 1.475,-4.431 1.798,-3.647 2.354,-2.301 1.117,-0.935 0,0"
             style="fill:#000000;fill-opacity:1;fill-rule:nonzero;stroke:none"
             id="path194" /></g><g
           id="g196"
           transform="translate(770.1616,609.8349)"><path
             d="m 0,0 c -4.527,2.061 -5.072,-3.808 -9.231,-0.726 -1.205,0.893 -2.938,1.708 -4.085,0.744 0.829,-2.588 0.607,-5.38 0.888,-8.083 0.281,-2.703 1.277,-5.614 3.653,-6.933 1.465,-0.813 3.214,-0.884 4.889,-0.928 0.957,-0.025 1.928,-0.046 2.858,0.185 1.685,0.419 3.054,1.612 4.351,2.767 1.352,1.204 2.808,2.618 2.865,4.428 0.043,1.387 -0.761,2.641 -1.534,3.793 C 3.401,-2.887 2.046,-0.931 0,0"
             style="fill:#000000;fill-opacity:1;fill-rule:nonzero;stroke:none"
             id="path198" /></g><g
           id="g200"
           transform="translate(748.7036,558.271)"><path
             d="m 0,0 c -1.608,0.716 -3.612,0.517 -4.989,-0.579 -1.377,-1.096 -2.019,-3.07 -1.459,-4.739 0.066,-0.198 0.157,-0.402 0.332,-0.517 0.17,-0.112 0.387,-0.116 0.591,-0.116 1.877,-0.003 3.754,-0.007 5.631,-0.01 0.928,-0.002 2.225,0.436 1.982,1.332 l 0.065,0.36 C 2.296,-3.055 2.071,-1.729 1.231,-0.841 0.888,-0.477 0.457,-0.204 0,0"
             style="fill:#000000;fill-opacity:1;fill-rule:nonzero;stroke:none"
             id="path202" /></g></g></g></g></svg>
